G04*
G04 #@! TF.GenerationSoftware,Altium Limited,Altium Designer,21.9.2 (33)*
G04*
G04 Layer_Color=255*
%FSTAX24Y24*%
%MOIN*%
G70*
G04*
G04 #@! TF.SameCoordinates,99FB27D3-1440-4BB7-B033-8997F9312AF3*
G04*
G04*
G04 #@! TF.FilePolarity,Positive*
G04*
G01*
G75*
%ADD70C,0.2362*%
%ADD71C,0.0551*%
%ADD72O,0.0850X0.0650*%
%ADD73R,0.0850X0.0650*%
%ADD74O,0.0492X0.0207*%
%ADD75O,0.0748X0.0374*%
%ADD76R,0.0738X0.0738*%
%ADD77C,0.0738*%
%ADD78C,0.0728*%
%ADD79C,0.1200*%
%ADD80R,0.0984X0.0787*%
D70*
X05372Y084297D02*
D03*
X053Y12039D02*
D03*
X01735Y08442D02*
D03*
Y12062D02*
D03*
D71*
X05086Y11296D02*
D03*
Y115913D02*
D03*
X050869Y105328D02*
D03*
Y108281D02*
D03*
X050849Y097548D02*
D03*
Y100501D02*
D03*
Y089825D02*
D03*
Y092778D02*
D03*
X020801Y093575D02*
D03*
Y090623D02*
D03*
D72*
X03755Y1137D02*
D03*
Y1147D02*
D03*
Y1157D02*
D03*
Y1167D02*
D03*
Y1177D02*
D03*
Y1127D02*
D03*
Y1117D02*
D03*
D73*
Y1187D02*
D03*
D74*
X017541Y115347D02*
D03*
Y113438D02*
D03*
D75*
X01636Y115776D02*
D03*
Y11301D02*
D03*
D76*
X021324Y104226D02*
D03*
X035221D02*
D03*
X016609Y099564D02*
D03*
X030537Y099867D02*
D03*
X023558Y099564D02*
D03*
D77*
X021324Y106194D02*
D03*
X016403Y104226D02*
D03*
Y106194D02*
D03*
X035221D02*
D03*
X030299Y104226D02*
D03*
Y106194D02*
D03*
X016609Y097596D02*
D03*
X021531Y099564D02*
D03*
Y097596D02*
D03*
X030537Y097898D02*
D03*
X035458Y099867D02*
D03*
Y097898D02*
D03*
X023558Y097596D02*
D03*
X028479Y099564D02*
D03*
Y097596D02*
D03*
D78*
X018863Y103438D02*
D03*
Y106982D02*
D03*
X03276Y103438D02*
D03*
Y106982D02*
D03*
X01907Y100352D02*
D03*
Y096808D02*
D03*
X032997Y100654D02*
D03*
Y097111D02*
D03*
X026018Y100352D02*
D03*
Y096808D02*
D03*
D79*
X041909Y107518D02*
D03*
X0475Y10988D02*
D03*
Y10508D02*
D03*
X042697Y10988D02*
D03*
Y105156D02*
D03*
X042687Y112788D02*
D03*
Y117512D02*
D03*
X047491Y112712D02*
D03*
Y117512D02*
D03*
X0419Y11515D02*
D03*
X029731Y091392D02*
D03*
X02414Y08903D02*
D03*
Y09383D02*
D03*
X028943Y08903D02*
D03*
Y093754D02*
D03*
X042707Y089646D02*
D03*
Y09437D02*
D03*
X04751Y08957D02*
D03*
Y09437D02*
D03*
X041919Y092008D02*
D03*
X042677Y097376D02*
D03*
Y1021D02*
D03*
X04748Y0973D02*
D03*
Y1021D02*
D03*
X041889Y099738D02*
D03*
D80*
X053489Y107603D02*
D03*
Y109603D02*
D03*
X05348Y115235D02*
D03*
Y117235D02*
D03*
X018151Y089307D02*
D03*
Y091307D02*
D03*
X053499Y092093D02*
D03*
Y094093D02*
D03*
X053469Y101823D02*
D03*
Y099823D02*
D03*
M02*
