G04*
G04 #@! TF.GenerationSoftware,Altium Limited,Altium Designer,21.9.2 (33)*
G04*
G04 Layer_Color=32896*
%FSTAX24Y24*%
%MOIN*%
G70*
G04*
G04 #@! TF.SameCoordinates,99FB27D3-1440-4BB7-B033-8997F9312AF3*
G04*
G04*
G04 #@! TF.FilePolarity,Positive*
G04*
G01*
G75*
%ADD12C,0.0079*%
%ADD14C,0.0050*%
%ADD15C,0.0200*%
D12*
X018059Y114885D02*
G03*
X018059Y114885I-000039J0D01*
G01*
X021911Y104174D02*
G03*
X021911Y104174I-000039J0D01*
G01*
X035808D02*
G03*
X035808Y104174I-000039J0D01*
G01*
X016101Y099616D02*
G03*
X016101Y099616I-000039J0D01*
G01*
X030028Y099918D02*
G03*
X030028Y099918I-000039J0D01*
G01*
X023049Y099616D02*
G03*
X023049Y099616I-000039J0D01*
G01*
D14*
X049325Y110696D02*
Y118177D01*
X052395Y110696D02*
Y118177D01*
X049325D02*
X052395D01*
X049325Y110696D02*
X052395D01*
X049334Y103064D02*
Y110545D01*
X052405Y103064D02*
Y110545D01*
X049334D02*
X052405D01*
X049334Y103064D02*
X052405D01*
X049314Y095284D02*
Y102765D01*
X052385Y095284D02*
Y102765D01*
X049314D02*
X052385D01*
X049314Y095284D02*
X052385D01*
X049314Y087561D02*
Y095042D01*
X052385Y087561D02*
Y095042D01*
X049314D02*
X052385D01*
X049314Y087561D02*
X052385D01*
X022336Y088359D02*
Y095839D01*
X019265Y088359D02*
Y095839D01*
Y088359D02*
X022336D01*
X019265Y095839D02*
X022336D01*
X017502Y115692D02*
Y115869D01*
Y112916D02*
Y113094D01*
X016872Y112916D02*
X017502D01*
X016872Y115869D02*
X017502D01*
X015789D02*
X015848D01*
X015789Y112916D02*
X015848D01*
X015789D02*
Y115869D01*
X016439Y106773D02*
Y10756D01*
X021163D01*
Y106773D02*
Y10756D01*
X016439Y102836D02*
Y103623D01*
Y102836D02*
X021163D01*
Y103623D01*
X030336Y106773D02*
Y10756D01*
X03506D01*
Y106773D02*
Y10756D01*
X030336Y102836D02*
Y103623D01*
Y102836D02*
X03506D01*
Y103623D01*
X021494Y09623D02*
Y097017D01*
X01677Y09623D02*
X021494D01*
X01677D02*
Y097017D01*
X021494Y100167D02*
Y100954D01*
X01677D02*
X021494D01*
X01677Y100167D02*
Y100954D01*
X035422Y096533D02*
Y09732D01*
X030697Y096533D02*
X035422D01*
X030697D02*
Y09732D01*
X035422Y10047D02*
Y101257D01*
X030697D02*
X035422D01*
X030697Y10047D02*
Y101257D01*
X028443Y09623D02*
Y097017D01*
X023718Y09623D02*
X028443D01*
X023718D02*
Y097017D01*
X028443Y100167D02*
Y100954D01*
X023718D02*
X028443D01*
X023718Y100167D02*
Y100954D01*
D15*
X01595Y12205D02*
X0384D01*
X01595Y1085D02*
Y12205D01*
Y1085D02*
X0384D01*
Y12205D01*
M02*
