G04*
G04 #@! TF.GenerationSoftware,Altium Limited,Altium Designer,21.9.2 (33)*
G04*
G04 Layer_Color=128*
%FSTAX24Y24*%
%MOIN*%
G70*
G04*
G04 #@! TF.SameCoordinates,99FB27D3-1440-4BB7-B033-8997F9312AF3*
G04*
G04*
G04 #@! TF.FilePolarity,Positive*
G04*
G01*
G75*
%ADD85C,0.0020*%
D85*
X052893Y084297D02*
X054547D01*
X05372Y083471D02*
Y085124D01*
X052173Y12039D02*
X053827D01*
X053Y119563D02*
Y121217D01*
X016523Y08442D02*
X018177D01*
X01735Y083593D02*
Y085247D01*
X016523Y12062D02*
X018177D01*
X01735Y119793D02*
Y121447D01*
X050653Y11296D02*
X051067D01*
X05086Y112753D02*
Y113167D01*
X050653Y115913D02*
X051067D01*
X05086Y115706D02*
Y11612D01*
X050663Y105328D02*
X051076D01*
X050869Y105121D02*
Y105535D01*
X050663Y108281D02*
X051076D01*
X050869Y108074D02*
Y108487D01*
X050643Y097548D02*
X051056D01*
X050849Y097341D02*
Y097755D01*
X050643Y100501D02*
X051056D01*
X050849Y100294D02*
Y100707D01*
X050643Y089825D02*
X051056D01*
X050849Y089618D02*
Y090032D01*
X050643Y092778D02*
X051056D01*
X050849Y092571D02*
Y092984D01*
X020594Y093575D02*
X021007D01*
X020801Y093369D02*
Y093782D01*
X020594Y090623D02*
X021007D01*
X020801Y090416D02*
Y090829D01*
X03737Y1137D02*
X03773D01*
X03755Y11352D02*
Y11388D01*
X03737Y1147D02*
X03773D01*
X03755Y11452D02*
Y11488D01*
X03737Y1157D02*
X03773D01*
X03755Y11552D02*
Y11588D01*
X03737Y1167D02*
X03773D01*
X03755Y11652D02*
Y11688D01*
X03737Y1177D02*
X03773D01*
X03755Y11752D02*
Y11788D01*
X03737Y1187D02*
X03773D01*
X03755Y11852D02*
Y11888D01*
X03737Y1127D02*
X03773D01*
X03755Y11252D02*
Y11288D01*
X03737Y1117D02*
X03773D01*
X03755Y11152D02*
Y11188D01*
X017413Y115347D02*
X017669D01*
X017541Y11522D02*
Y115475D01*
X017413Y113438D02*
X017669D01*
X017541Y11331D02*
Y113566D01*
X016198Y115776D02*
X016522D01*
X01636Y115613D02*
Y115938D01*
X016198Y11301D02*
X016522D01*
X01636Y112847D02*
Y113172D01*
X021078Y104226D02*
X02157D01*
X021324Y10398D02*
Y104472D01*
X021078Y106194D02*
X02157D01*
X021324Y105948D02*
Y10644D01*
X016157Y104226D02*
X016649D01*
X016403Y10398D02*
Y104472D01*
X016157Y106194D02*
X016649D01*
X016403Y105948D02*
Y10644D01*
X018499Y103438D02*
X019227D01*
X018863Y103074D02*
Y103803D01*
X018499Y106982D02*
X019227D01*
X018863Y106617D02*
Y107346D01*
X034975Y104226D02*
X035467D01*
X035221Y10398D02*
Y104472D01*
X034975Y106194D02*
X035467D01*
X035221Y105948D02*
Y10644D01*
X030053Y104226D02*
X030545D01*
X030299Y10398D02*
Y104472D01*
X030053Y106194D02*
X030545D01*
X030299Y105948D02*
Y10644D01*
X032396Y103438D02*
X033124D01*
X03276Y103074D02*
Y103803D01*
X032396Y106982D02*
X033124D01*
X03276Y106617D02*
Y107346D01*
X016363Y099564D02*
X016855D01*
X016609Y099318D02*
Y09981D01*
X016363Y097596D02*
X016855D01*
X016609Y09735D02*
Y097842D01*
X021285Y099564D02*
X021777D01*
X021531Y099318D02*
Y09981D01*
X021285Y097596D02*
X021777D01*
X021531Y09735D02*
Y097842D01*
X018706Y100352D02*
X019434D01*
X01907Y099987D02*
Y100716D01*
X018706Y096808D02*
X019434D01*
X01907Y096444D02*
Y097173D01*
X030291Y099867D02*
X030783D01*
X030537Y099621D02*
Y100113D01*
X030291Y097898D02*
X030783D01*
X030537Y097652D02*
Y098144D01*
X035212Y099867D02*
X035704D01*
X035458Y099621D02*
Y100113D01*
X035212Y097898D02*
X035704D01*
X035458Y097652D02*
Y098144D01*
X032633Y100654D02*
X033361D01*
X032997Y10029D02*
Y101018D01*
X032633Y097111D02*
X033361D01*
X032997Y096747D02*
Y097475D01*
X023312Y099564D02*
X023804D01*
X023558Y099318D02*
Y09981D01*
X023312Y097596D02*
X023804D01*
X023558Y09735D02*
Y097842D01*
X028233Y099564D02*
X028725D01*
X028479Y099318D02*
Y09981D01*
X028233Y097596D02*
X028725D01*
X028479Y09735D02*
Y097842D01*
X025654Y100352D02*
X026383D01*
X026018Y099987D02*
Y100716D01*
X025654Y096808D02*
X026383D01*
X026018Y096444D02*
Y097173D01*
X041684Y107518D02*
X042134D01*
X041909Y107293D02*
Y107743D01*
X047275Y10988D02*
X047725D01*
X0475Y109655D02*
Y110105D01*
X047275Y10508D02*
X047725D01*
X0475Y104855D02*
Y105305D01*
X042472Y10988D02*
X042922D01*
X042697Y109655D02*
Y110105D01*
X042472Y105156D02*
X042922D01*
X042697Y104931D02*
Y105381D01*
X053214Y107603D02*
X053765D01*
X053489Y107327D02*
Y107878D01*
X053214Y109603D02*
X053765D01*
X053489Y109327D02*
Y109878D01*
X053204Y115235D02*
X053756D01*
X05348Y114959D02*
Y115511D01*
X053204Y117235D02*
X053756D01*
X05348Y116959D02*
Y117511D01*
X042462Y112788D02*
X042912D01*
X042687Y112563D02*
Y113013D01*
X042462Y117512D02*
X042912D01*
X042687Y117287D02*
Y117737D01*
X047266Y112712D02*
X047716D01*
X047491Y112487D02*
Y112937D01*
X047266Y117512D02*
X047716D01*
X047491Y117287D02*
Y117737D01*
X041675Y11515D02*
X042125D01*
X0419Y114925D02*
Y115375D01*
X029506Y091392D02*
X029956D01*
X029731Y091167D02*
Y091617D01*
X023915Y08903D02*
X024365D01*
X02414Y088805D02*
Y089255D01*
X023915Y09383D02*
X024365D01*
X02414Y093605D02*
Y094055D01*
X028718Y08903D02*
X029168D01*
X028943Y088805D02*
Y089255D01*
X028718Y093754D02*
X029168D01*
X028943Y093529D02*
Y093979D01*
X017875Y089307D02*
X018426D01*
X018151Y089032D02*
Y089583D01*
X017875Y091307D02*
X018426D01*
X018151Y091032D02*
Y091583D01*
X042482Y089646D02*
X042932D01*
X042707Y089421D02*
Y089871D01*
X042482Y09437D02*
X042932D01*
X042707Y094145D02*
Y094595D01*
X047285Y08957D02*
X047735D01*
X04751Y089345D02*
Y089795D01*
X047285Y09437D02*
X047735D01*
X04751Y094145D02*
Y094595D01*
X041694Y092008D02*
X042144D01*
X041919Y091783D02*
Y092233D01*
X053224Y092093D02*
X053775D01*
X053499Y091817D02*
Y092368D01*
X053224Y094093D02*
X053775D01*
X053499Y093817D02*
Y094368D01*
X042452Y097376D02*
X042902D01*
X042677Y097151D02*
Y097601D01*
X042452Y1021D02*
X042902D01*
X042677Y101875D02*
Y102325D01*
X047255Y0973D02*
X047705D01*
X04748Y097075D02*
Y097525D01*
X047255Y1021D02*
X047705D01*
X04748Y101875D02*
Y102325D01*
X041664Y099738D02*
X042114D01*
X041889Y099513D02*
Y099963D01*
X053194Y101823D02*
X053745D01*
X053469Y101547D02*
Y102098D01*
X053194Y099823D02*
X053745D01*
X053469Y099547D02*
Y100098D01*
X02174Y11434D02*
X02186D01*
X0218Y11428D02*
Y1144D01*
X022Y11464D02*
X02212D01*
X02206Y11458D02*
Y1147D01*
X0184Y11399D02*
X01852D01*
X01846Y11393D02*
Y11405D01*
X018393Y11447D02*
X018513D01*
X018453Y11441D02*
Y11453D01*
X05436Y084997D02*
X05448D01*
X05442Y084937D02*
Y085057D01*
X05366Y085297D02*
X05378D01*
X05372Y085237D02*
Y085357D01*
X05296Y084997D02*
X05308D01*
X05302Y084937D02*
Y085057D01*
X05266Y084297D02*
X05278D01*
X05272Y084237D02*
Y084357D01*
X05466Y084297D02*
X05478D01*
X05472Y084237D02*
Y084357D01*
X05436Y083597D02*
X05448D01*
X05442Y083537D02*
Y083657D01*
X05366Y083297D02*
X05378D01*
X05372Y083237D02*
Y083357D01*
X05296Y083547D02*
X05308D01*
X05302Y083487D02*
Y083607D01*
X05219Y12109D02*
X05231D01*
X05225Y12103D02*
Y12115D01*
X05194Y12039D02*
X05206D01*
X052Y12033D02*
Y12045D01*
X05224Y11969D02*
X05236D01*
X0523Y11963D02*
Y11975D01*
X05294Y11939D02*
X05306D01*
X053Y11933D02*
Y11945D01*
X05294Y12139D02*
X05306D01*
X053Y12133D02*
Y12145D01*
X05364Y12109D02*
X05376D01*
X0537Y12103D02*
Y12115D01*
X05394Y12039D02*
X05406D01*
X054Y12033D02*
Y12045D01*
X05364Y11969D02*
X05376D01*
X0537Y11963D02*
Y11975D01*
X01799Y08372D02*
X01811D01*
X01805Y08366D02*
Y08378D01*
X01829Y08442D02*
X01841D01*
X01835Y08436D02*
Y08448D01*
X01799Y08512D02*
X01811D01*
X01805Y08506D02*
Y08518D01*
X01729Y08542D02*
X01741D01*
X01735Y08536D02*
Y08548D01*
X01729Y08342D02*
X01741D01*
X01735Y08336D02*
Y08348D01*
X01659Y08372D02*
X01671D01*
X01665Y08366D02*
Y08378D01*
X01629Y08442D02*
X01641D01*
X01635Y08436D02*
Y08448D01*
X01654Y08512D02*
X01666D01*
X0166Y08506D02*
Y08518D01*
X01654Y12132D02*
X01666D01*
X0166Y12126D02*
Y12138D01*
X01629Y12062D02*
X01641D01*
X01635Y12056D02*
Y12068D01*
X01659Y11992D02*
X01671D01*
X01665Y11986D02*
Y11998D01*
X01729Y11962D02*
X01741D01*
X01735Y11956D02*
Y11968D01*
X01729Y12162D02*
X01741D01*
X01735Y12156D02*
Y12168D01*
X01799Y12132D02*
X01811D01*
X01805Y12126D02*
Y12138D01*
X01829Y12062D02*
X01841D01*
X01835Y12056D02*
Y12068D01*
X01799Y11992D02*
X01811D01*
X01805Y11986D02*
Y11998D01*
X040646Y090223D02*
X040766D01*
X040706Y090163D02*
Y090283D01*
X040891Y090874D02*
X041011D01*
X040951Y090814D02*
Y090934D01*
X039063Y089453D02*
X039183D01*
X039123Y089393D02*
Y089513D01*
X040881Y106384D02*
X041001D01*
X040941Y106324D02*
Y106444D01*
X040636Y105733D02*
X040756D01*
X040696Y105673D02*
Y105793D01*
X039053Y104963D02*
X039173D01*
X039113Y104903D02*
Y105023D01*
X040861Y098604D02*
X040981D01*
X040921Y098544D02*
Y098664D01*
X040616Y097953D02*
X040736D01*
X040676Y097893D02*
Y098013D01*
X016039Y111372D02*
X016158D01*
X016099Y111312D02*
Y111432D01*
X016039Y116932D02*
X016158D01*
X016099Y116872D02*
Y116992D01*
X034978Y101702D02*
X035098D01*
X035038Y101642D02*
Y101762D01*
X030462Y102058D02*
X030582D01*
X030522Y101998D02*
Y102118D01*
X032467Y093947D02*
X032587D01*
X032527Y093887D02*
Y094007D01*
X030884Y093177D02*
X031004D01*
X030944Y093117D02*
Y093237D01*
X031174Y092537D02*
X031294D01*
X031234Y092477D02*
Y092597D01*
X03877Y09655D02*
X03889D01*
X03883Y09649D02*
Y09661D01*
X01993Y11407D02*
X02005D01*
X01999Y11401D02*
Y11413D01*
X02036Y11407D02*
X02048D01*
X02042Y11401D02*
Y11413D01*
X02074Y11406D02*
X02086D01*
X0208Y114D02*
Y11412D01*
X02073Y11482D02*
X02085D01*
X02079Y11476D02*
Y11488D01*
X02034Y11484D02*
X02046D01*
X0204Y11478D02*
Y1149D01*
X01993Y11481D02*
X02005D01*
X01999Y11475D02*
Y11487D01*
X032194Y11008D02*
X032314D01*
X032254Y11002D02*
Y11014D01*
X02529Y10929D02*
X02541D01*
X02535Y10923D02*
Y10935D01*
X02071Y10169D02*
X02083D01*
X02077Y10163D02*
Y10175D01*
X0196Y11733D02*
X01972D01*
X01966Y11727D02*
Y11739D01*
X04085Y11336D02*
X04097D01*
X04091Y1133D02*
Y11342D01*
X03929Y118745D02*
X03941D01*
X03935Y118685D02*
Y118805D01*
X01693Y102654D02*
X01705D01*
X01699Y102594D02*
Y102714D01*
X02514Y102654D02*
X02526D01*
X0252Y102594D02*
Y102714D01*
X026509Y111368D02*
X026629D01*
X026569Y111308D02*
Y111428D01*
X0178Y1139D02*
X01792D01*
X01786Y11384D02*
Y11396D01*
X018761Y1134D02*
X018881D01*
X018821Y11334D02*
Y11346D01*
X020657Y118058D02*
X020777D01*
X020717Y117998D02*
Y118118D01*
X019232Y11606D02*
X019352D01*
X019292Y116D02*
Y11612D01*
X02183Y117D02*
X02195D01*
X02189Y11694D02*
Y11706D01*
X02315Y11653D02*
X02327D01*
X02321Y11647D02*
Y11659D01*
X02358Y11704D02*
X0237D01*
X02364Y11698D02*
Y1171D01*
X02374Y11821D02*
X02386D01*
X0238Y11815D02*
Y11827D01*
X02342Y11914D02*
X02354D01*
X02348Y11908D02*
Y1192D01*
X02342Y11988D02*
X02354D01*
X02348Y11982D02*
Y11994D01*
X02762Y11491D02*
X02774D01*
X02768Y11485D02*
Y11497D01*
X02723Y11591D02*
X02735D01*
X02729Y11585D02*
Y11597D01*
X02762Y11703D02*
X02774D01*
X02768Y11697D02*
Y11709D01*
X02818Y11704D02*
X0283D01*
X02824Y11698D02*
Y1171D01*
X02932Y11648D02*
X02944D01*
X02938Y11642D02*
Y11654D01*
X02932Y11588D02*
X02944D01*
X02938Y11582D02*
Y11594D01*
X02873Y11476D02*
X02885D01*
X02879Y1147D02*
Y11482D01*
X02815Y11478D02*
X02827D01*
X02821Y11472D02*
Y11484D01*
X03281Y11294D02*
X03293D01*
X03287Y11288D02*
Y113D01*
X02593Y11639D02*
X02605D01*
X02599Y11633D02*
Y11645D01*
X03065Y11694D02*
X03077D01*
X03071Y11688D02*
Y117D01*
X03064Y11772D02*
X03076D01*
X0307Y11766D02*
Y11778D01*
X031599Y117451D02*
X031719D01*
X031659Y117391D02*
Y117511D01*
X027Y11124D02*
X02712D01*
X02706Y11118D02*
Y1113D01*
X03049Y11138D02*
X03061D01*
X03055Y11132D02*
Y11144D01*
X0259Y11295D02*
X02602D01*
X02596Y11289D02*
Y11301D01*
X026241Y113451D02*
X026361D01*
X026301Y113391D02*
Y113511D01*
X0259Y11495D02*
X02602D01*
X02596Y11489D02*
Y11501D01*
X031258Y118951D02*
X031378D01*
X031318Y118891D02*
Y119011D01*
X0259Y11895D02*
X02602D01*
X02596Y11889D02*
Y11901D01*
X03726Y09669D02*
X03738D01*
X03732Y09663D02*
Y09675D01*
X03952Y12023D02*
X03964D01*
X03958Y12017D02*
Y12029D01*
X03729Y10444D02*
X03741D01*
X03735Y10438D02*
Y1045D01*
X03727Y08897D02*
X03739D01*
X03733Y08891D02*
Y08903D01*
X02218Y11205D02*
X0223D01*
X02224Y11199D02*
Y11211D01*
X02218Y11243D02*
X0223D01*
X02224Y11237D02*
Y11249D01*
X03423Y09458D02*
X03435D01*
X03429Y09452D02*
Y09464D01*
X02082Y11095D02*
X02094D01*
X02088Y11089D02*
Y11101D01*
X02047Y11626D02*
X02059D01*
X02053Y1162D02*
Y11632D01*
X02095Y11623D02*
X02107D01*
X02101Y11617D02*
Y11629D01*
X01819Y11095D02*
X01831D01*
X01825Y11089D02*
Y11101D01*
X0177Y11624D02*
X01782D01*
X01776Y11618D02*
Y1163D01*
X0185Y11057D02*
X01862D01*
X01856Y11051D02*
Y11063D01*
X0185Y11243D02*
X01862D01*
X01856Y11237D02*
Y11249D01*
X01927Y11298D02*
X01939D01*
X01933Y11292D02*
Y11304D01*
X020951Y112956D02*
X021071D01*
X021011Y112896D02*
Y113016D01*
X031599Y113451D02*
X031719D01*
X031659Y113391D02*
Y113511D01*
X031258Y113951D02*
X031378D01*
X031318Y113891D02*
Y114011D01*
X031599Y114451D02*
X031719D01*
X031659Y114391D02*
Y114511D01*
X031258Y114951D02*
X031378D01*
X031318Y114891D02*
Y115011D01*
X031258Y116951D02*
X031378D01*
X031318Y116891D02*
Y117011D01*
X026241Y112451D02*
X026361D01*
X026301Y112391D02*
Y112511D01*
X0259Y11395D02*
X02602D01*
X02596Y11389D02*
Y11401D01*
X026241Y114451D02*
X026361D01*
X026301Y114391D02*
Y114511D01*
X0259Y11595D02*
X02602D01*
X02596Y11589D02*
Y11601D01*
X026241Y115451D02*
X026361D01*
X026301Y115391D02*
Y115511D01*
X0259Y11795D02*
X02602D01*
X02596Y11789D02*
Y11801D01*
X026241Y118451D02*
X026361D01*
X026301Y118391D02*
Y118511D01*
M02*
