M48
;Layer_Color=9474304
;FILE_FORMAT=2:4
INCH,LZ
;TYPE=PLATED
T1F00S00C0.0120
T4F00S00C0.0360
T5F00S00C0.0413
T6F00S00C0.0450
T7F00S00C0.0492
T8F00S00C0.0551
T9F00S00C0.1654
;TYPE=NON_PLATED
T10F00S00C0.0728
%
T01
X05302Y083547
X05372Y083297
X05442Y083597
X05472Y084297
X05442Y084997
X05372Y085297
X05302Y084997
X05272Y084297
X040706Y090223
X040951Y090874
X039123Y089453
X03733Y08897
X031234Y092537
X030944Y093177
X01805Y08512
X01835Y08442
X01805Y08372
X01735Y08342
X01665Y08372
X01635Y08442
X0166Y08512
X01735Y08542
X01699Y102654
X02077Y10169
X0252Y102654
X030522Y102058
X02535Y10929
X03735Y10444
X039113Y104963
X040696Y105733
X040941Y106384
X040921Y098604
X040676Y097953
X03883Y09655
X03732Y09669
X03429Y09458
X032527Y093947
X035038Y101702
X0523Y11969
X052Y12039
X05225Y12109
X053Y12139
X0537Y12109
X054Y12039
X0537Y11969
X053Y11939
X03958Y12023
X03935Y118745
X04091Y11336
X03287Y11294
X031659Y113451
X031318Y113951
X031659Y114451
X031318Y114951
Y116951
X031659Y117451
X031318Y118951
X032254Y11008
X03055Y11138
X02706Y11124
X026569Y111368
X026301Y112451
X02596Y11295
X026301Y113451
X02596Y11395
X026301Y114451
X02596Y11495
X026301Y115451
X02596Y11595
X02599Y11639
X02596Y11795
X026301Y118451
X02596Y11895
X02348Y11914
Y11988
X0238Y11821
X02364Y11704
X02321Y11653
X02189Y117
X02101Y11623
X02053Y11626
X019292Y11606
X01966Y11733
X020717Y118058
X02079Y11482
X0204Y11484
X01999Y11481
Y11407
X02042
X0208Y11406
X0218Y11434
X02206Y11464
X02224Y11243
Y11205
X021011Y112956
X01933Y11298
X018821Y1134
X01846Y11399
X018453Y11447
X01786Y1139
X01856Y11243
X01825Y11095
X01856Y11057
X02088Y11095
X016099Y111372
Y116932
X01776Y11624
X01735Y11962
X01665Y11992
X01635Y12062
X0166Y12132
X01735Y12162
X01805Y12132
X01835Y12062
X01805Y11992
X02768Y11703
X02824Y11704
X02938Y11648
Y11588
X02879Y11476
X02821Y11478
X02768Y11491
X02729Y11591
X03071Y11694
X0307Y11772
T04
X03755Y1117
Y1127
Y1137
Y1147
Y1157
Y1167
Y1177
Y1187
T05
X050849Y089825
Y092778
X020801Y093575
Y090623
X050849Y097548
Y100501
X050869Y105328
Y108281
X05086Y11296
Y115913
T06
X04751Y08957
X042707Y089646
X041919Y092008
X029731Y091392
X028943Y08903
X02414
Y09383
X028943Y093754
X042707Y09437
X042677Y097376
X041889Y099738
X042677Y1021
X042697Y105156
X041909Y107518
X0475Y10508
X04748Y1021
Y0973
X04751Y09437
X0475Y10988
X047491Y112712
Y117512
X042687
X0419Y11515
X042687Y112788
X042697Y10988
T07
X016609Y097596
Y099564
X016403Y104226
Y106194
X021324
Y104226
X021531Y099564
Y097596
X023558
Y099564
X028479
Y097596
X030537Y097898
Y099867
X030299Y104226
Y106194
X035221
Y104226
X035458Y099867
Y097898
T08
X053499Y092093
X018151Y091307
Y089307
X053499Y094093
X053469Y099823
Y101823
X053489Y107603
Y109603
X05348Y115235
Y117235
T09
X05372Y084297
X01735Y08442
X053Y12039
X01735Y12062
T10
X01907Y096808
Y100352
X018863Y103438
Y106982
X026018Y100352
Y096808
X032997Y097111
Y100654
X03276Y103438
Y106982
M30
