G04*
G04 #@! TF.GenerationSoftware,Altium Limited,Altium Designer,21.9.2 (33)*
G04*
G04 Layer_Color=128*
%FSTAX24Y24*%
%MOIN*%
G70*
G04*
G04 #@! TF.SameCoordinates,99FB27D3-1440-4BB7-B033-8997F9312AF3*
G04*
G04*
G04 #@! TF.FilePolarity,Positive*
G04*
G01*
G75*
G36*
X016734Y112739D02*
X016734Y112729D01*
X016733Y112719D01*
X016732Y112709D01*
X01673Y112698D01*
X016727Y112688D01*
X016725Y112678D01*
X016721Y112669D01*
X016717Y112659D01*
X016713Y11265D01*
X016708Y112641D01*
X016702Y112632D01*
X016697Y112623D01*
X01669Y112615D01*
X016684Y112607D01*
X016677Y1126D01*
X016669Y112593D01*
X016661Y112586D01*
X016653Y11258D01*
X016644Y112574D01*
X016636Y112569D01*
X016627Y112564D01*
X016617Y112559D01*
X016608Y112555D01*
X016598Y112552D01*
X016588Y112549D01*
X016578Y112547D01*
X016568Y112545D01*
X016558Y112544D01*
X016547Y112543D01*
X016537Y112542D01*
X016183D01*
X016173Y112543D01*
X016162Y112544D01*
X016152Y112545D01*
X016142Y112547D01*
X016132Y112549D01*
X016122Y112552D01*
X016112Y112555D01*
X016103Y112559D01*
X016093Y112564D01*
X016084Y112569D01*
X016076Y112574D01*
X016067Y11258D01*
X016059Y112586D01*
X016051Y112593D01*
X016043Y1126D01*
X016036Y112607D01*
X01603Y112615D01*
X016023Y112623D01*
X016018Y112632D01*
X016012Y112641D01*
X016007Y11265D01*
X016003Y112659D01*
X015999Y112669D01*
X015995Y112678D01*
X015993Y112688D01*
X01599Y112698D01*
X015988Y112709D01*
X015987Y112719D01*
X015986Y112729D01*
X015986Y112739D01*
Y113369D01*
X016734D01*
Y112739D01*
D02*
G37*
G36*
X017591Y113644D02*
X017602Y113644D01*
X017613Y113642D01*
X017623Y11364D01*
X017634Y113638D01*
X017644Y113634D01*
X017654Y113631D01*
X017665Y113627D01*
X017674Y113622D01*
X017684Y113617D01*
X017693Y113611D01*
X017702Y113605D01*
X01771Y113599D01*
X017719Y113592D01*
X017727Y113584D01*
X017734Y113576D01*
X017741Y113568D01*
X017748Y11356D01*
X017754Y113551D01*
X01776Y113541D01*
X017765Y113532D01*
X017769Y113522D01*
X017773Y113512D01*
X017777Y113502D01*
X01778Y113492D01*
X017783Y113481D01*
X017785Y11347D01*
X017786Y11346D01*
X017787Y113449D01*
X017787Y113438D01*
X017787Y113427D01*
X017786Y113416D01*
X017785Y113406D01*
X017783Y113395D01*
X01778Y113384D01*
X017777Y113374D01*
X017773Y113364D01*
X017769Y113354D01*
X017765Y113344D01*
X01776Y113334D01*
X017754Y113325D01*
X017748Y113316D01*
X017741Y113308D01*
X017734Y1133D01*
X017727Y113292D01*
X017719Y113284D01*
X01771Y113277D01*
X017702Y113271D01*
X017693Y113265D01*
X017684Y113259D01*
X017674Y113254D01*
X017665Y113249D01*
X017654Y113245D01*
X017644Y113242D01*
X017634Y113238D01*
X017623Y113236D01*
X017613Y113234D01*
X017602Y113233D01*
X017591Y113232D01*
X01758Y113231D01*
X017502D01*
X017491Y113232D01*
X01748Y113233D01*
X017469Y113234D01*
X017459Y113236D01*
X017448Y113238D01*
X017438Y113242D01*
X017428Y113245D01*
X017417Y113249D01*
X017408Y113254D01*
X017399Y113259D01*
X017389Y113265D01*
X01738Y113271D01*
X017372Y113277D01*
X017364Y113284D01*
X017356Y113292D01*
X017348Y1133D01*
X017341Y113308D01*
X017334Y113316D01*
X017328Y113325D01*
X017323Y113334D01*
X017317Y113344D01*
X017313Y113354D01*
X017309Y113364D01*
X017305Y113374D01*
X017302Y113384D01*
X017299Y113395D01*
X017297Y113406D01*
X017296Y113416D01*
X017295Y113427D01*
X017295Y113438D01*
X017295Y113449D01*
X017296Y11346D01*
X017297Y11347D01*
X017299Y113481D01*
X017302Y113492D01*
X017305Y113502D01*
X017309Y113512D01*
X017313Y113522D01*
X017317Y113532D01*
X017323Y113542D01*
X017328Y113551D01*
X017334Y11356D01*
X017341Y113568D01*
X017348Y113576D01*
X017356Y113584D01*
X017364Y113592D01*
X017372Y113599D01*
X01738Y113605D01*
X017389Y113611D01*
X017398Y113617D01*
X017408Y113622D01*
X017417Y113627D01*
X017428Y113631D01*
X017438Y113634D01*
X017448Y113638D01*
X017459Y11364D01*
X017469Y113642D01*
X01748Y113644D01*
X017491Y113644D01*
X017502Y113645D01*
X01758D01*
X017591Y113644D01*
D02*
G37*
G36*
X016547Y116243D02*
X016558Y116242D01*
X016568Y116241D01*
X016578Y116239D01*
X016588Y116236D01*
X016598Y116234D01*
X016608Y11623D01*
X016617Y116226D01*
X016627Y116222D01*
X016636Y116217D01*
X016644Y116211D01*
X016653Y116206D01*
X016661Y116199D01*
X016669Y116193D01*
X016677Y116186D01*
X016684Y116178D01*
X01669Y11617D01*
X016697Y116162D01*
X016702Y116153D01*
X016708Y116145D01*
X016713Y116136D01*
X016717Y116126D01*
X016721Y116117D01*
X016725Y116107D01*
X016727Y116097D01*
X01673Y116087D01*
X016732Y116077D01*
X016733Y116067D01*
X016734Y116057D01*
X016734Y116046D01*
Y115416D01*
X015986D01*
Y116046D01*
X015986Y116057D01*
X015987Y116067D01*
X015988Y116077D01*
X01599Y116087D01*
X015993Y116097D01*
X015995Y116107D01*
X015999Y116117D01*
X016003Y116126D01*
X016007Y116136D01*
X016012Y116145D01*
X016018Y116153D01*
X016023Y116162D01*
X01603Y11617D01*
X016036Y116178D01*
X016043Y116186D01*
X016051Y116193D01*
X016059Y116199D01*
X016067Y116206D01*
X016076Y116211D01*
X016084Y116217D01*
X016093Y116222D01*
X016103Y116226D01*
X016112Y11623D01*
X016122Y116234D01*
X016132Y116236D01*
X016142Y116239D01*
X016152Y116241D01*
X016162Y116242D01*
X016173Y116243D01*
X016183Y116243D01*
X016537D01*
X016547Y116243D01*
D02*
G37*
G36*
X017591Y115554D02*
X017602Y115553D01*
X017613Y115552D01*
X017623Y11555D01*
X017634Y115547D01*
X017644Y115544D01*
X017654Y11554D01*
X017665Y115536D01*
X017674Y115532D01*
X017684Y115527D01*
X017693Y115521D01*
X017702Y115515D01*
X01771Y115508D01*
X017719Y115501D01*
X017727Y115494D01*
X017734Y115486D01*
X017741Y115477D01*
X017748Y115469D01*
X017754Y11546D01*
X01776Y115451D01*
X017765Y115441D01*
X017769Y115432D01*
X017773Y115421D01*
X017777Y115411D01*
X01778Y115401D01*
X017783Y11539D01*
X017785Y11538D01*
X017786Y115369D01*
X017787Y115358D01*
X017787Y115347D01*
X017787Y115337D01*
X017786Y115326D01*
X017785Y115315D01*
X017783Y115305D01*
X01778Y115294D01*
X017777Y115284D01*
X017773Y115273D01*
X017769Y115263D01*
X017765Y115254D01*
X01776Y115244D01*
X017754Y115235D01*
X017748Y115226D01*
X017741Y115218D01*
X017734Y115209D01*
X017727Y115201D01*
X017719Y115194D01*
X01771Y115187D01*
X017702Y11518D01*
X017693Y115174D01*
X017684Y115168D01*
X017674Y115163D01*
X017665Y115159D01*
X017654Y115155D01*
X017644Y115151D01*
X017634Y115148D01*
X017623Y115145D01*
X017613Y115143D01*
X017602Y115142D01*
X017591Y115141D01*
X01758Y115141D01*
X017502D01*
X017491Y115141D01*
X01748Y115142D01*
X017469Y115143D01*
X017459Y115145D01*
X017448Y115148D01*
X017438Y115151D01*
X017428Y115155D01*
X017417Y115159D01*
X017408Y115163D01*
X017398Y115168D01*
X017389Y115174D01*
X01738Y11518D01*
X017372Y115187D01*
X017364Y115194D01*
X017356Y115201D01*
X017348Y115209D01*
X017341Y115218D01*
X017334Y115226D01*
X017328Y115235D01*
X017323Y115244D01*
X017317Y115254D01*
X017313Y115263D01*
X017309Y115273D01*
X017305Y115284D01*
X017302Y115294D01*
X017299Y115305D01*
X017297Y115315D01*
X017296Y115326D01*
X017295Y115337D01*
X017295Y115347D01*
X017295Y115358D01*
X017296Y115369D01*
X017297Y11538D01*
X017299Y11539D01*
X017302Y115401D01*
X017305Y115411D01*
X017309Y115421D01*
X017313Y115432D01*
X017317Y115441D01*
X017323Y115451D01*
X017328Y11546D01*
X017334Y115469D01*
X017341Y115477D01*
X017348Y115486D01*
X017356Y115494D01*
X017364Y115501D01*
X017372Y115508D01*
X01738Y115515D01*
X017389Y115521D01*
X017399Y115527D01*
X017408Y115532D01*
X017417Y115536D01*
X017428Y11554D01*
X017438Y115544D01*
X017448Y115547D01*
X017459Y11555D01*
X017469Y115552D01*
X01748Y115553D01*
X017491Y115554D01*
X017502Y115554D01*
X01758D01*
X017591Y115554D01*
D02*
G37*
%LPC*%
G36*
X016543Y113172D02*
X016177D01*
X016171Y113172D01*
X016164Y113171D01*
X016158Y11317D01*
X016152Y113168D01*
X016146Y113166D01*
X01614Y113164D01*
X016135Y113162D01*
X016129Y113159D01*
X016124Y113157D01*
X016119Y113153D01*
X016114Y11315D01*
X016108Y113146D01*
X016104Y113142D01*
X016099Y113138D01*
X016095Y113133D01*
X016091Y113129D01*
X016087Y113123D01*
X016084Y113118D01*
X01608Y113113D01*
X016078Y113108D01*
X016075Y113102D01*
X016073Y113097D01*
X016071Y113091D01*
X016069Y113085D01*
X016067Y113079D01*
X016066Y113073D01*
X016066Y113066D01*
X016065Y11306D01*
Y112959D01*
X016066Y112953D01*
X016066Y112947D01*
X016067Y112941D01*
X016069Y112935D01*
X016071Y112929D01*
X016073Y112923D01*
X016075Y112918D01*
X016078Y112912D01*
X01608Y112907D01*
X016084Y112901D01*
X016087Y112896D01*
X016091Y112891D01*
X016095Y112886D01*
X016099Y112882D01*
X016104Y112878D01*
X016108Y112874D01*
X016114Y11287D01*
X016119Y112866D01*
X016124Y112863D01*
X016129Y11286D01*
X016135Y112858D01*
X01614Y112855D01*
X016146Y112853D01*
X016152Y112851D01*
X016158Y11285D01*
X016164Y112849D01*
X016171Y112848D01*
X016177Y112847D01*
X016553D01*
X016558Y112848D01*
X016564Y112849D01*
X016569Y11285D01*
X016575Y112851D01*
X01658Y112853D01*
X016586Y112855D01*
X016591Y112857D01*
X016596Y112859D01*
X016601Y112862D01*
X016606Y112865D01*
X016611Y112868D01*
X016615Y112872D01*
X016619Y112875D01*
X016623Y112879D01*
X016627Y112883D01*
X016631Y112888D01*
X016634Y112892D01*
X016638Y112897D01*
X016641Y112902D01*
X016643Y112907D01*
X016646Y112912D01*
X016648Y112917D01*
X01665Y112922D01*
X016652Y112928D01*
X016653Y112933D01*
X016654Y112939D01*
X016654Y112944D01*
X016655Y11295D01*
Y11306D01*
X016654Y113066D01*
X016654Y113073D01*
X016653Y113079D01*
X016651Y113085D01*
X016649Y113091D01*
X016647Y113097D01*
X016645Y113102D01*
X016642Y113108D01*
X01664Y113113D01*
X016636Y113118D01*
X016633Y113123D01*
X016629Y113129D01*
X016625Y113133D01*
X016621Y113138D01*
X016616Y113142D01*
X016612Y113146D01*
X016606Y11315D01*
X016601Y113153D01*
X016596Y113157D01*
X016591Y113159D01*
X016585Y113162D01*
X01658Y113164D01*
X016574Y113166D01*
X016568Y113168D01*
X016562Y11317D01*
X016556Y113171D01*
X016549Y113172D01*
X016543Y113172D01*
D02*
G37*
G36*
X017587Y113566D02*
X017495D01*
X017488Y113565D01*
X017482Y113564D01*
X017475Y113563D01*
X017469Y113562D01*
X017462Y11356D01*
X017456Y113557D01*
X01745Y113555D01*
X017443Y113552D01*
X017438Y113549D01*
X017432Y113546D01*
X017427Y113542D01*
X017421Y113538D01*
X017416Y113533D01*
X017411Y113529D01*
X017406Y113523D01*
X017402Y113519D01*
X017398Y113513D01*
X017394Y113508D01*
X017391Y113502D01*
X017388Y113496D01*
X017385Y11349D01*
X017382Y113484D01*
X01738Y113477D01*
X017378Y113471D01*
X017377Y113465D01*
X017375Y113458D01*
X017375Y113451D01*
X017374Y113445D01*
Y113438D01*
Y113431D01*
X017375Y113425D01*
X017375Y113418D01*
X017377Y113411D01*
X017378Y113405D01*
X01738Y113399D01*
X017382Y113392D01*
X017385Y113386D01*
X017388Y11338D01*
X017391Y113374D01*
X017394Y113368D01*
X017398Y113363D01*
X017402Y113357D01*
X017406Y113353D01*
X017411Y113347D01*
X017416Y113343D01*
X017421Y113338D01*
X017427Y113334D01*
X017432Y113331D01*
X017438Y113327D01*
X017443Y113324D01*
X01745Y113321D01*
X017456Y113319D01*
X017462Y113316D01*
X017469Y113314D01*
X017475Y113313D01*
X017482Y113312D01*
X017488Y113311D01*
X017495Y11331D01*
X017587D01*
X017594Y113311D01*
X017601Y113312D01*
X017607Y113313D01*
X017614Y113314D01*
X01762Y113316D01*
X017626Y113319D01*
X017632Y113321D01*
X017639Y113324D01*
X017645Y113327D01*
X01765Y113331D01*
X017656Y113334D01*
X017661Y113338D01*
X017666Y113343D01*
X017671Y113347D01*
X017676Y113353D01*
X01768Y113357D01*
X017684Y113363D01*
X017688Y113368D01*
X017691Y113374D01*
X017695Y11338D01*
X017697Y113386D01*
X0177Y113392D01*
X017702Y113399D01*
X017704Y113405D01*
X017706Y113411D01*
X017707Y113418D01*
X017708Y113425D01*
X017708Y113431D01*
Y113438D01*
Y113445D01*
X017708Y113451D01*
X017707Y113458D01*
X017706Y113465D01*
X017704Y113471D01*
X017702Y113477D01*
X0177Y113484D01*
X017697Y11349D01*
X017695Y113496D01*
X017691Y113502D01*
X017688Y113508D01*
X017684Y113513D01*
X01768Y113519D01*
X017676Y113523D01*
X017671Y113529D01*
X017666Y113533D01*
X017661Y113538D01*
X017656Y113542D01*
X01765Y113546D01*
X017645Y113549D01*
X017639Y113552D01*
X017632Y113555D01*
X017626Y113557D01*
X01762Y11356D01*
X017614Y113562D01*
X017607Y113563D01*
X017601Y113564D01*
X017594Y113565D01*
X017587Y113566D01*
D02*
G37*
G36*
X016543Y115938D02*
X016167D01*
X016162Y115937D01*
X016156Y115937D01*
X016151Y115936D01*
X016145Y115934D01*
X01614Y115933D01*
X016134Y115931D01*
X016129Y115929D01*
X016124Y115926D01*
X016119Y115923D01*
X016114Y115921D01*
X016109Y115917D01*
X016105Y115914D01*
X016101Y11591D01*
X016097Y115906D01*
X016093Y115902D01*
X016089Y115898D01*
X016086Y115894D01*
X016082Y115889D01*
X016079Y115884D01*
X016077Y115879D01*
X016074Y115874D01*
X016072Y115869D01*
X01607Y115863D01*
X016068Y115858D01*
X016067Y115852D01*
X016066Y115847D01*
X016066Y115841D01*
X016065Y115835D01*
Y115725D01*
X016066Y115719D01*
X016066Y115713D01*
X016067Y115707D01*
X016069Y115701D01*
X016071Y115695D01*
X016073Y115689D01*
X016075Y115683D01*
X016078Y115678D01*
X01608Y115672D01*
X016084Y115667D01*
X016087Y115662D01*
X016091Y115657D01*
X016095Y115652D01*
X016099Y115648D01*
X016104Y115644D01*
X016108Y11564D01*
X016114Y115636D01*
X016119Y115632D01*
X016124Y115629D01*
X016129Y115626D01*
X016135Y115623D01*
X01614Y115621D01*
X016146Y115619D01*
X016152Y115617D01*
X016158Y115616D01*
X016164Y115615D01*
X016171Y115614D01*
X016177Y115613D01*
X016543D01*
X016549Y115614D01*
X016556Y115615D01*
X016562Y115616D01*
X016568Y115617D01*
X016574Y115619D01*
X01658Y115621D01*
X016585Y115623D01*
X016591Y115626D01*
X016596Y115629D01*
X016601Y115632D01*
X016606Y115636D01*
X016612Y11564D01*
X016616Y115644D01*
X016621Y115648D01*
X016625Y115652D01*
X016629Y115657D01*
X016633Y115662D01*
X016636Y115667D01*
X01664Y115672D01*
X016642Y115678D01*
X016645Y115683D01*
X016647Y115689D01*
X016649Y115695D01*
X016651Y115701D01*
X016653Y115707D01*
X016654Y115713D01*
X016654Y115719D01*
X016655Y115725D01*
Y115826D01*
X016654Y115832D01*
X016654Y115838D01*
X016653Y115844D01*
X016651Y115851D01*
X016649Y115857D01*
X016647Y115862D01*
X016645Y115868D01*
X016642Y115873D01*
X01664Y115879D01*
X016636Y115884D01*
X016633Y115889D01*
X016629Y115894D01*
X016625Y115899D01*
X016621Y115903D01*
X016616Y115908D01*
X016612Y115912D01*
X016606Y115916D01*
X016601Y115919D01*
X016596Y115922D01*
X016591Y115925D01*
X016585Y115928D01*
X01658Y11593D01*
X016574Y115932D01*
X016568Y115934D01*
X016562Y115935D01*
X016556Y115936D01*
X016549Y115937D01*
X016543Y115938D01*
D02*
G37*
G36*
X017587Y115475D02*
X017495D01*
X017488Y115475D01*
X017482Y115474D01*
X017475Y115473D01*
X017469Y115471D01*
X017462Y115469D01*
X017456Y115467D01*
X01745Y115464D01*
X017443Y115462D01*
X017438Y115458D01*
X017432Y115455D01*
X017427Y115451D01*
X017421Y115447D01*
X017416Y115443D01*
X017411Y115438D01*
X017406Y115433D01*
X017402Y115428D01*
X017398Y115423D01*
X017394Y115417D01*
X017391Y115411D01*
X017388Y115406D01*
X017385Y115399D01*
X017382Y115393D01*
X01738Y115387D01*
X017378Y115381D01*
X017377Y115374D01*
X017375Y115368D01*
X017375Y115361D01*
X017374Y115354D01*
Y115347D01*
Y115341D01*
X017375Y115334D01*
X017375Y115327D01*
X017377Y115321D01*
X017378Y115314D01*
X01738Y115308D01*
X017382Y115302D01*
X017385Y115296D01*
X017388Y115289D01*
X017391Y115284D01*
X017394Y115278D01*
X017398Y115272D01*
X017402Y115267D01*
X017406Y115262D01*
X017411Y115257D01*
X017416Y115252D01*
X017421Y115248D01*
X017427Y115244D01*
X017432Y11524D01*
X017438Y115237D01*
X017443Y115233D01*
X01745Y115231D01*
X017456Y115228D01*
X017462Y115226D01*
X017469Y115224D01*
X017475Y115222D01*
X017482Y115221D01*
X017488Y11522D01*
X017495Y11522D01*
X017587D01*
X017594Y11522D01*
X017601Y115221D01*
X017607Y115222D01*
X017614Y115224D01*
X01762Y115226D01*
X017626Y115228D01*
X017632Y115231D01*
X017639Y115233D01*
X017645Y115237D01*
X01765Y11524D01*
X017656Y115244D01*
X017661Y115248D01*
X017666Y115252D01*
X017671Y115257D01*
X017676Y115262D01*
X01768Y115267D01*
X017684Y115272D01*
X017688Y115278D01*
X017691Y115284D01*
X017695Y115289D01*
X017697Y115296D01*
X0177Y115302D01*
X017702Y115308D01*
X017704Y115314D01*
X017706Y115321D01*
X017707Y115327D01*
X017708Y115334D01*
X017708Y115341D01*
Y115347D01*
Y115354D01*
X017708Y115361D01*
X017707Y115368D01*
X017706Y115374D01*
X017704Y115381D01*
X017702Y115387D01*
X0177Y115393D01*
X017697Y115399D01*
X017695Y115406D01*
X017691Y115411D01*
X017688Y115417D01*
X017684Y115423D01*
X01768Y115428D01*
X017676Y115433D01*
X017671Y115438D01*
X017666Y115443D01*
X017661Y115447D01*
X017656Y115451D01*
X01765Y115455D01*
X017645Y115458D01*
X017639Y115462D01*
X017632Y115464D01*
X017626Y115467D01*
X01762Y115469D01*
X017614Y115471D01*
X017607Y115473D01*
X017601Y115474D01*
X017594Y115475D01*
X017587Y115475D01*
D02*
G37*
%LPD*%
M02*
