G04*
G04 #@! TF.GenerationSoftware,Altium Limited,Altium Designer,21.9.2 (33)*
G04*
G04 Layer_Color=2752767*
%FSTAX24Y24*%
%MOIN*%
G70*
G04*
G04 #@! TF.SameCoordinates,99FB27D3-1440-4BB7-B033-8997F9312AF3*
G04*
G04*
G04 #@! TF.FilePolarity,Positive*
G04*
G01*
G75*
%ADD85C,0.0020*%
%ADD86C,0.0027*%
%ADD87C,0.0013*%
D85*
X05364Y084217D02*
Y084377D01*
X0538D01*
Y084217D01*
X05364D01*
X05292Y12031D02*
Y12047D01*
X05308D01*
Y12031D01*
X05292D01*
X01727Y08434D02*
Y0845D01*
X01743D01*
Y08434D01*
X01727D01*
Y12054D02*
Y1207D01*
X01743D01*
Y12054D01*
X01727D01*
X03755Y11362D02*
X03747Y11378D01*
X03763D01*
X03755Y11362D01*
Y11462D02*
X03747Y11478D01*
X03763D01*
X03755Y11462D01*
Y11562D02*
X03747Y11578D01*
X03763D01*
X03755Y11562D01*
Y11662D02*
X03747Y11678D01*
X03763D01*
X03755Y11662D01*
Y11762D02*
X03747Y11778D01*
X03763D01*
X03755Y11762D01*
Y11862D02*
X03747Y11878D01*
X03763D01*
X03755Y11862D01*
Y11262D02*
X03747Y11278D01*
X03763D01*
X03755Y11262D01*
Y11162D02*
X03747Y11178D01*
X03763D01*
X03755Y11162D01*
X017541Y115267D02*
X017581Y115307D01*
X017621D01*
X017581Y115347D01*
X017621Y115387D01*
X017581D01*
X017541Y115427D01*
X017501Y115387D01*
X017461D01*
X017501Y115347D01*
X017461Y115307D01*
X017501D01*
X017541Y115267D01*
Y113358D02*
X017581Y113398D01*
X017621D01*
X017581Y113438D01*
X017621Y113478D01*
X017581D01*
X017541Y113518D01*
X017501Y113478D01*
X017461D01*
X017501Y113438D01*
X017461Y113398D01*
X017501D01*
X017541Y113358D01*
X01628Y115696D02*
X01632Y115776D01*
X01628Y115856D01*
X01636Y115816D01*
X01644Y115856D01*
X0164Y115776D01*
X01644Y115696D01*
X01636Y115736D01*
X01628Y115696D01*
Y11293D02*
X01632Y11301D01*
X01628Y11309D01*
X01636Y11305D01*
X01644Y11309D01*
X0164Y11301D01*
X01644Y11293D01*
X01636Y11297D01*
X01628Y11293D01*
X021284Y104186D02*
Y104146D01*
X021364D01*
Y104186D01*
X021404D01*
Y104266D01*
X021364D01*
Y104306D01*
X021284D01*
Y104266D01*
X021244D01*
Y104186D01*
X021284D01*
Y106154D02*
Y106114D01*
X021364D01*
Y106154D01*
X021404D01*
Y106234D01*
X021364D01*
Y106274D01*
X021284D01*
Y106234D01*
X021244D01*
Y106154D01*
X021284D01*
X016363Y104186D02*
Y104146D01*
X016443D01*
Y104186D01*
X016483D01*
Y104266D01*
X016443D01*
Y104306D01*
X016363D01*
Y104266D01*
X016323D01*
Y104186D01*
X016363D01*
Y106154D02*
Y106114D01*
X016443D01*
Y106154D01*
X016483D01*
Y106234D01*
X016443D01*
Y106274D01*
X016363D01*
Y106234D01*
X016323D01*
Y106154D01*
X016363D01*
X018783Y103358D02*
X018823D01*
X018863Y103398D01*
X018903Y103358D01*
X018943D01*
Y103398D01*
X018903Y103438D01*
X018943Y103478D01*
Y103518D01*
X018903D01*
X018863Y103478D01*
X018823Y103518D01*
X018783D01*
Y103478D01*
X018823Y103438D01*
X018783Y103398D01*
Y103358D01*
Y106902D02*
X018823D01*
X018863Y106942D01*
X018903Y106902D01*
X018943D01*
Y106942D01*
X018903Y106982D01*
X018943Y107022D01*
Y107062D01*
X018903D01*
X018863Y107022D01*
X018823Y107062D01*
X018783D01*
Y107022D01*
X018823Y106982D01*
X018783Y106942D01*
Y106902D01*
X035181Y104186D02*
Y104146D01*
X035261D01*
Y104186D01*
X035301D01*
Y104266D01*
X035261D01*
Y104306D01*
X035181D01*
Y104266D01*
X035141D01*
Y104186D01*
X035181D01*
Y106154D02*
Y106114D01*
X035261D01*
Y106154D01*
X035301D01*
Y106234D01*
X035261D01*
Y106274D01*
X035181D01*
Y106234D01*
X035141D01*
Y106154D01*
X035181D01*
X030259Y104186D02*
Y104146D01*
X030339D01*
Y104186D01*
X030379D01*
Y104266D01*
X030339D01*
Y104306D01*
X030259D01*
Y104266D01*
X030219D01*
Y104186D01*
X030259D01*
Y106154D02*
Y106114D01*
X030339D01*
Y106154D01*
X030379D01*
Y106234D01*
X030339D01*
Y106274D01*
X030259D01*
Y106234D01*
X030219D01*
Y106154D01*
X030259D01*
X03268Y103358D02*
X03272D01*
X03276Y103398D01*
X0328Y103358D01*
X03284D01*
Y103398D01*
X0328Y103438D01*
X03284Y103478D01*
Y103518D01*
X0328D01*
X03276Y103478D01*
X03272Y103518D01*
X03268D01*
Y103478D01*
X03272Y103438D01*
X03268Y103398D01*
Y103358D01*
Y106902D02*
X03272D01*
X03276Y106942D01*
X0328Y106902D01*
X03284D01*
Y106942D01*
X0328Y106982D01*
X03284Y107022D01*
Y107062D01*
X0328D01*
X03276Y107022D01*
X03272Y107062D01*
X03268D01*
Y107022D01*
X03272Y106982D01*
X03268Y106942D01*
Y106902D01*
X016569Y099524D02*
Y099484D01*
X016649D01*
Y099524D01*
X016689D01*
Y099604D01*
X016649D01*
Y099644D01*
X016569D01*
Y099604D01*
X016529D01*
Y099524D01*
X016569D01*
Y097556D02*
Y097516D01*
X016649D01*
Y097556D01*
X016689D01*
Y097636D01*
X016649D01*
Y097676D01*
X016569D01*
Y097636D01*
X016529D01*
Y097556D01*
X016569D01*
X021491Y099524D02*
Y099484D01*
X021571D01*
Y099524D01*
X021611D01*
Y099604D01*
X021571D01*
Y099644D01*
X021491D01*
Y099604D01*
X021451D01*
Y099524D01*
X021491D01*
Y097556D02*
Y097516D01*
X021571D01*
Y097556D01*
X021611D01*
Y097636D01*
X021571D01*
Y097676D01*
X021491D01*
Y097636D01*
X021451D01*
Y097556D01*
X021491D01*
X01899Y100272D02*
X01903D01*
X01907Y100312D01*
X01911Y100272D01*
X01915D01*
Y100312D01*
X01911Y100352D01*
X01915Y100392D01*
Y100432D01*
X01911D01*
X01907Y100392D01*
X01903Y100432D01*
X01899D01*
Y100392D01*
X01903Y100352D01*
X01899Y100312D01*
Y100272D01*
Y096728D02*
X01903D01*
X01907Y096768D01*
X01911Y096728D01*
X01915D01*
Y096768D01*
X01911Y096808D01*
X01915Y096848D01*
Y096888D01*
X01911D01*
X01907Y096848D01*
X01903Y096888D01*
X01899D01*
Y096848D01*
X01903Y096808D01*
X01899Y096768D01*
Y096728D01*
X030497Y099827D02*
Y099787D01*
X030577D01*
Y099827D01*
X030617D01*
Y099907D01*
X030577D01*
Y099947D01*
X030497D01*
Y099907D01*
X030457D01*
Y099827D01*
X030497D01*
Y097858D02*
Y097818D01*
X030577D01*
Y097858D01*
X030617D01*
Y097938D01*
X030577D01*
Y097978D01*
X030497D01*
Y097938D01*
X030457D01*
Y097858D01*
X030497D01*
X035418Y099827D02*
Y099787D01*
X035498D01*
Y099827D01*
X035538D01*
Y099907D01*
X035498D01*
Y099947D01*
X035418D01*
Y099907D01*
X035378D01*
Y099827D01*
X035418D01*
Y097858D02*
Y097818D01*
X035498D01*
Y097858D01*
X035538D01*
Y097938D01*
X035498D01*
Y097978D01*
X035418D01*
Y097938D01*
X035378D01*
Y097858D01*
X035418D01*
X032917Y100574D02*
X032957D01*
X032997Y100614D01*
X033037Y100574D01*
X033077D01*
Y100614D01*
X033037Y100654D01*
X033077Y100694D01*
Y100734D01*
X033037D01*
X032997Y100694D01*
X032957Y100734D01*
X032917D01*
Y100694D01*
X032957Y100654D01*
X032917Y100614D01*
Y100574D01*
Y097031D02*
X032957D01*
X032997Y097071D01*
X033037Y097031D01*
X033077D01*
Y097071D01*
X033037Y097111D01*
X033077Y097151D01*
Y097191D01*
X033037D01*
X032997Y097151D01*
X032957Y097191D01*
X032917D01*
Y097151D01*
X032957Y097111D01*
X032917Y097071D01*
Y097031D01*
X023518Y099524D02*
Y099484D01*
X023598D01*
Y099524D01*
X023638D01*
Y099604D01*
X023598D01*
Y099644D01*
X023518D01*
Y099604D01*
X023478D01*
Y099524D01*
X023518D01*
Y097556D02*
Y097516D01*
X023598D01*
Y097556D01*
X023638D01*
Y097636D01*
X023598D01*
Y097676D01*
X023518D01*
Y097636D01*
X023478D01*
Y097556D01*
X023518D01*
X028439Y099524D02*
Y099484D01*
X028519D01*
Y099524D01*
X028559D01*
Y099604D01*
X028519D01*
Y099644D01*
X028439D01*
Y099604D01*
X028399D01*
Y099524D01*
X028439D01*
Y097556D02*
Y097516D01*
X028519D01*
Y097556D01*
X028559D01*
Y097636D01*
X028519D01*
Y097676D01*
X028439D01*
Y097636D01*
X028399D01*
Y097556D01*
X028439D01*
X025938Y100272D02*
X025978D01*
X026018Y100312D01*
X026058Y100272D01*
X026098D01*
Y100312D01*
X026058Y100352D01*
X026098Y100392D01*
Y100432D01*
X026058D01*
X026018Y100392D01*
X025978Y100432D01*
X025938D01*
Y100392D01*
X025978Y100352D01*
X025938Y100312D01*
Y100272D01*
Y096728D02*
X025978D01*
X026018Y096768D01*
X026058Y096728D01*
X026098D01*
Y096768D01*
X026058Y096808D01*
X026098Y096848D01*
Y096888D01*
X026058D01*
X026018Y096848D01*
X025978Y096888D01*
X025938D01*
Y096848D01*
X025978Y096808D01*
X025938Y096768D01*
Y096728D01*
X041829Y107518D02*
X041909Y107598D01*
X041989Y107518D01*
X041909Y107438D01*
X041829Y107518D01*
X04742Y10988D02*
X0475Y10996D01*
X04758Y10988D01*
X0475Y1098D01*
X04742Y10988D01*
Y10508D02*
X0475Y10516D01*
X04758Y10508D01*
X0475Y105D01*
X04742Y10508D01*
X042617Y10988D02*
X042697Y10996D01*
X042777Y10988D01*
X042697Y1098D01*
X042617Y10988D01*
Y105156D02*
X042697Y105236D01*
X042777Y105156D01*
X042697Y105076D01*
X042617Y105156D01*
X053409Y107523D02*
Y107683D01*
X053569D01*
Y107523D01*
X053409D01*
X053449Y107563D02*
Y107643D01*
X053529D01*
Y107563D01*
X053449D01*
X053409Y109523D02*
Y109683D01*
X053569D01*
Y109523D01*
X053409D01*
X053449Y109563D02*
Y109643D01*
X053529D01*
Y109563D01*
X053449D01*
X0534Y115155D02*
Y115315D01*
X05356D01*
Y115155D01*
X0534D01*
X05344Y115195D02*
Y115275D01*
X05352D01*
Y115195D01*
X05344D01*
X0534Y117155D02*
Y117315D01*
X05356D01*
Y117155D01*
X0534D01*
X05344Y117195D02*
Y117275D01*
X05352D01*
Y117195D01*
X05344D01*
X042607Y112788D02*
X042687Y112868D01*
X042767Y112788D01*
X042687Y112708D01*
X042607Y112788D01*
Y117512D02*
X042687Y117592D01*
X042767Y117512D01*
X042687Y117432D01*
X042607Y117512D01*
X047411Y112712D02*
X047491Y112792D01*
X047571Y112712D01*
X047491Y112632D01*
X047411Y112712D01*
Y117512D02*
X047491Y117592D01*
X047571Y117512D01*
X047491Y117432D01*
X047411Y117512D01*
X04182Y11515D02*
X0419Y11523D01*
X04198Y11515D01*
X0419Y11507D01*
X04182Y11515D01*
X029651Y091392D02*
X029731Y091472D01*
X029811Y091392D01*
X029731Y091312D01*
X029651Y091392D01*
X02406Y08903D02*
X02414Y08911D01*
X02422Y08903D01*
X02414Y08895D01*
X02406Y08903D01*
Y09383D02*
X02414Y09391D01*
X02422Y09383D01*
X02414Y09375D01*
X02406Y09383D01*
X028863Y08903D02*
X028943Y08911D01*
X029023Y08903D01*
X028943Y08895D01*
X028863Y08903D01*
Y093754D02*
X028943Y093834D01*
X029023Y093754D01*
X028943Y093674D01*
X028863Y093754D01*
X018071Y089227D02*
Y089387D01*
X018231D01*
Y089227D01*
X018071D01*
X018111Y089267D02*
Y089347D01*
X018191D01*
Y089267D01*
X018111D01*
X018071Y091227D02*
Y091387D01*
X018231D01*
Y091227D01*
X018071D01*
X018111Y091267D02*
Y091347D01*
X018191D01*
Y091267D01*
X018111D01*
X042627Y089646D02*
X042707Y089726D01*
X042787Y089646D01*
X042707Y089566D01*
X042627Y089646D01*
Y09437D02*
X042707Y09445D01*
X042787Y09437D01*
X042707Y09429D01*
X042627Y09437D01*
X04743Y08957D02*
X04751Y08965D01*
X04759Y08957D01*
X04751Y08949D01*
X04743Y08957D01*
Y09437D02*
X04751Y09445D01*
X04759Y09437D01*
X04751Y09429D01*
X04743Y09437D01*
X041839Y092008D02*
X041919Y092088D01*
X041999Y092008D01*
X041919Y091928D01*
X041839Y092008D01*
X053419Y092013D02*
Y092173D01*
X053579D01*
Y092013D01*
X053419D01*
X053459Y092053D02*
Y092133D01*
X053539D01*
Y092053D01*
X053459D01*
X053419Y094013D02*
Y094173D01*
X053579D01*
Y094013D01*
X053419D01*
X053459Y094053D02*
Y094133D01*
X053539D01*
Y094053D01*
X053459D01*
X042597Y097376D02*
X042677Y097456D01*
X042757Y097376D01*
X042677Y097296D01*
X042597Y097376D01*
Y1021D02*
X042677Y10218D01*
X042757Y1021D01*
X042677Y10202D01*
X042597Y1021D01*
X0474Y0973D02*
X04748Y09738D01*
X04756Y0973D01*
X04748Y09722D01*
X0474Y0973D01*
Y1021D02*
X04748Y10218D01*
X04756Y1021D01*
X04748Y10202D01*
X0474Y1021D01*
X041809Y099738D02*
X041889Y099818D01*
X041969Y099738D01*
X041889Y099658D01*
X041809Y099738D01*
X053389Y101743D02*
Y101903D01*
X053549D01*
Y101743D01*
X053389D01*
X053429Y101783D02*
Y101863D01*
X053509D01*
Y101783D01*
X053429D01*
X053389Y099743D02*
Y099903D01*
X053549D01*
Y099743D01*
X053389D01*
X053429Y099783D02*
Y099863D01*
X053509D01*
Y099783D01*
X053429D01*
D86*
X05094Y11296D02*
G03*
X05094Y11296I-00008J0D01*
G01*
Y115913D02*
G03*
X05094Y115913I-00008J0D01*
G01*
X050949Y105328D02*
G03*
X050949Y105328I-00008J0D01*
G01*
Y108281D02*
G03*
X050949Y108281I-00008J0D01*
G01*
X050929Y097548D02*
G03*
X050929Y097548I-00008J0D01*
G01*
Y100501D02*
G03*
X050929Y100501I-00008J0D01*
G01*
Y089825D02*
G03*
X050929Y089825I-00008J0D01*
G01*
Y092778D02*
G03*
X050929Y092778I-00008J0D01*
G01*
X020881Y093575D02*
G03*
X020881Y093575I-00008J0D01*
G01*
Y090623D02*
G03*
X020881Y090623I-00008J0D01*
G01*
X02188Y11434D02*
G03*
X02188Y11434I-00008J0D01*
G01*
X02214Y11464D02*
G03*
X02214Y11464I-00008J0D01*
G01*
X01854Y11399D02*
G03*
X01854Y11399I-00008J0D01*
G01*
X018533Y11447D02*
G03*
X018533Y11447I-00008J0D01*
G01*
X0545Y084997D02*
G03*
X0545Y084997I-00008J0D01*
G01*
X0538Y085297D02*
G03*
X0538Y085297I-00008J0D01*
G01*
X0531Y084997D02*
G03*
X0531Y084997I-00008J0D01*
G01*
X0528Y084297D02*
G03*
X0528Y084297I-00008J0D01*
G01*
X0548D02*
G03*
X0548Y084297I-00008J0D01*
G01*
X0545Y083597D02*
G03*
X0545Y083597I-00008J0D01*
G01*
X0538Y083297D02*
G03*
X0538Y083297I-00008J0D01*
G01*
X0531Y083547D02*
G03*
X0531Y083547I-00008J0D01*
G01*
X05233Y12109D02*
G03*
X05233Y12109I-00008J0D01*
G01*
X05208Y12039D02*
G03*
X05208Y12039I-00008J0D01*
G01*
X05238Y11969D02*
G03*
X05238Y11969I-00008J0D01*
G01*
X05308Y11939D02*
G03*
X05308Y11939I-00008J0D01*
G01*
Y12139D02*
G03*
X05308Y12139I-00008J0D01*
G01*
X05378Y12109D02*
G03*
X05378Y12109I-00008J0D01*
G01*
X05408Y12039D02*
G03*
X05408Y12039I-00008J0D01*
G01*
X05378Y11969D02*
G03*
X05378Y11969I-00008J0D01*
G01*
X01813Y08372D02*
G03*
X01813Y08372I-00008J0D01*
G01*
X01843Y08442D02*
G03*
X01843Y08442I-00008J0D01*
G01*
X01813Y08512D02*
G03*
X01813Y08512I-00008J0D01*
G01*
X01743Y08542D02*
G03*
X01743Y08542I-00008J0D01*
G01*
Y08342D02*
G03*
X01743Y08342I-00008J0D01*
G01*
X01673Y08372D02*
G03*
X01673Y08372I-00008J0D01*
G01*
X01643Y08442D02*
G03*
X01643Y08442I-00008J0D01*
G01*
X01668Y08512D02*
G03*
X01668Y08512I-00008J0D01*
G01*
Y12132D02*
G03*
X01668Y12132I-00008J0D01*
G01*
X01643Y12062D02*
G03*
X01643Y12062I-00008J0D01*
G01*
X01673Y11992D02*
G03*
X01673Y11992I-00008J0D01*
G01*
X01743Y11962D02*
G03*
X01743Y11962I-00008J0D01*
G01*
Y12162D02*
G03*
X01743Y12162I-00008J0D01*
G01*
X01813Y12132D02*
G03*
X01813Y12132I-00008J0D01*
G01*
X01843Y12062D02*
G03*
X01843Y12062I-00008J0D01*
G01*
X01813Y11992D02*
G03*
X01813Y11992I-00008J0D01*
G01*
X040786Y090223D02*
G03*
X040786Y090223I-00008J0D01*
G01*
X041031Y090874D02*
G03*
X041031Y090874I-00008J0D01*
G01*
X039203Y089453D02*
G03*
X039203Y089453I-00008J0D01*
G01*
X041021Y106384D02*
G03*
X041021Y106384I-00008J0D01*
G01*
X040776Y105733D02*
G03*
X040776Y105733I-00008J0D01*
G01*
X039193Y104963D02*
G03*
X039193Y104963I-00008J0D01*
G01*
X041001Y098604D02*
G03*
X041001Y098604I-00008J0D01*
G01*
X040756Y097953D02*
G03*
X040756Y097953I-00008J0D01*
G01*
X016178Y111372D02*
G03*
X016178Y111372I-00008J0D01*
G01*
Y116932D02*
G03*
X016178Y116932I-00008J0D01*
G01*
X035118Y101702D02*
G03*
X035118Y101702I-00008J0D01*
G01*
X030602Y102058D02*
G03*
X030602Y102058I-00008J0D01*
G01*
X032607Y093947D02*
G03*
X032607Y093947I-00008J0D01*
G01*
X031024Y093177D02*
G03*
X031024Y093177I-00008J0D01*
G01*
X031314Y092537D02*
G03*
X031314Y092537I-00008J0D01*
G01*
X03891Y09655D02*
G03*
X03891Y09655I-00008J0D01*
G01*
X02007Y11407D02*
G03*
X02007Y11407I-00008J0D01*
G01*
X0205D02*
G03*
X0205Y11407I-00008J0D01*
G01*
X02088Y11406D02*
G03*
X02088Y11406I-00008J0D01*
G01*
X02087Y11482D02*
G03*
X02087Y11482I-00008J0D01*
G01*
X02048Y11484D02*
G03*
X02048Y11484I-00008J0D01*
G01*
X02007Y11481D02*
G03*
X02007Y11481I-00008J0D01*
G01*
X032334Y11008D02*
G03*
X032334Y11008I-00008J0D01*
G01*
X02543Y10929D02*
G03*
X02543Y10929I-00008J0D01*
G01*
X02085Y10169D02*
G03*
X02085Y10169I-00008J0D01*
G01*
X01974Y11733D02*
G03*
X01974Y11733I-00008J0D01*
G01*
X04099Y11336D02*
G03*
X04099Y11336I-00008J0D01*
G01*
X03943Y118745D02*
G03*
X03943Y118745I-00008J0D01*
G01*
X01707Y102654D02*
G03*
X01707Y102654I-00008J0D01*
G01*
X02528D02*
G03*
X02528Y102654I-00008J0D01*
G01*
X026649Y111368D02*
G03*
X026649Y111368I-00008J0D01*
G01*
X01794Y1139D02*
G03*
X01794Y1139I-00008J0D01*
G01*
X018901Y1134D02*
G03*
X018901Y1134I-00008J0D01*
G01*
X020797Y118058D02*
G03*
X020797Y118058I-00008J0D01*
G01*
X019372Y11606D02*
G03*
X019372Y11606I-00008J0D01*
G01*
X02197Y117D02*
G03*
X02197Y117I-00008J0D01*
G01*
X02329Y11653D02*
G03*
X02329Y11653I-00008J0D01*
G01*
X02372Y11704D02*
G03*
X02372Y11704I-00008J0D01*
G01*
X02388Y11821D02*
G03*
X02388Y11821I-00008J0D01*
G01*
X02356Y11914D02*
G03*
X02356Y11914I-00008J0D01*
G01*
Y11988D02*
G03*
X02356Y11988I-00008J0D01*
G01*
X02776Y11491D02*
G03*
X02776Y11491I-00008J0D01*
G01*
X02737Y11591D02*
G03*
X02737Y11591I-00008J0D01*
G01*
X02776Y11703D02*
G03*
X02776Y11703I-00008J0D01*
G01*
X02832Y11704D02*
G03*
X02832Y11704I-00008J0D01*
G01*
X02946Y11648D02*
G03*
X02946Y11648I-00008J0D01*
G01*
Y11588D02*
G03*
X02946Y11588I-00008J0D01*
G01*
X02887Y11476D02*
G03*
X02887Y11476I-00008J0D01*
G01*
X02829Y11478D02*
G03*
X02829Y11478I-00008J0D01*
G01*
X03295Y11294D02*
G03*
X03295Y11294I-00008J0D01*
G01*
X02607Y11639D02*
G03*
X02607Y11639I-00008J0D01*
G01*
X03079Y11694D02*
G03*
X03079Y11694I-00008J0D01*
G01*
X03078Y11772D02*
G03*
X03078Y11772I-00008J0D01*
G01*
X031739Y117451D02*
G03*
X031739Y117451I-00008J0D01*
G01*
X02714Y11124D02*
G03*
X02714Y11124I-00008J0D01*
G01*
X03063Y11138D02*
G03*
X03063Y11138I-00008J0D01*
G01*
X02604Y11295D02*
G03*
X02604Y11295I-00008J0D01*
G01*
X026381Y113451D02*
G03*
X026381Y113451I-00008J0D01*
G01*
X02604Y11495D02*
G03*
X02604Y11495I-00008J0D01*
G01*
X031398Y118951D02*
G03*
X031398Y118951I-00008J0D01*
G01*
X02604Y11895D02*
G03*
X02604Y11895I-00008J0D01*
G01*
X0374Y09669D02*
G03*
X0374Y09669I-00008J0D01*
G01*
X03966Y12023D02*
G03*
X03966Y12023I-00008J0D01*
G01*
X03743Y10444D02*
G03*
X03743Y10444I-00008J0D01*
G01*
X03741Y08897D02*
G03*
X03741Y08897I-00008J0D01*
G01*
X02232Y11205D02*
G03*
X02232Y11205I-00008J0D01*
G01*
Y11243D02*
G03*
X02232Y11243I-00008J0D01*
G01*
X03437Y09458D02*
G03*
X03437Y09458I-00008J0D01*
G01*
X02096Y11095D02*
G03*
X02096Y11095I-00008J0D01*
G01*
X02061Y11626D02*
G03*
X02061Y11626I-00008J0D01*
G01*
X02109Y11623D02*
G03*
X02109Y11623I-00008J0D01*
G01*
X01833Y11095D02*
G03*
X01833Y11095I-00008J0D01*
G01*
X01784Y11624D02*
G03*
X01784Y11624I-00008J0D01*
G01*
X01864Y11057D02*
G03*
X01864Y11057I-00008J0D01*
G01*
Y11243D02*
G03*
X01864Y11243I-00008J0D01*
G01*
X01941Y11298D02*
G03*
X01941Y11298I-00008J0D01*
G01*
X021091Y112956D02*
G03*
X021091Y112956I-00008J0D01*
G01*
X031739Y113451D02*
G03*
X031739Y113451I-00008J0D01*
G01*
X031398Y113951D02*
G03*
X031398Y113951I-00008J0D01*
G01*
X031739Y114451D02*
G03*
X031739Y114451I-00008J0D01*
G01*
X031398Y114951D02*
G03*
X031398Y114951I-00008J0D01*
G01*
Y116951D02*
G03*
X031398Y116951I-00008J0D01*
G01*
X026381Y112451D02*
G03*
X026381Y112451I-00008J0D01*
G01*
X02604Y11395D02*
G03*
X02604Y11395I-00008J0D01*
G01*
X026381Y114451D02*
G03*
X026381Y114451I-00008J0D01*
G01*
X02604Y11595D02*
G03*
X02604Y11595I-00008J0D01*
G01*
X026381Y115451D02*
G03*
X026381Y115451I-00008J0D01*
G01*
X02604Y11795D02*
G03*
X02604Y11795I-00008J0D01*
G01*
X026381Y118451D02*
G03*
X026381Y118451I-00008J0D01*
G01*
D87*
X02184Y11434D02*
G03*
X02184Y11434I-00004J0D01*
G01*
X0221Y11464D02*
G03*
X0221Y11464I-00004J0D01*
G01*
X0185Y11399D02*
G03*
X0185Y11399I-00004J0D01*
G01*
X018493Y11447D02*
G03*
X018493Y11447I-00004J0D01*
G01*
X05446Y084997D02*
G03*
X05446Y084997I-00004J0D01*
G01*
X05376Y085297D02*
G03*
X05376Y085297I-00004J0D01*
G01*
X05306Y084997D02*
G03*
X05306Y084997I-00004J0D01*
G01*
X05276Y084297D02*
G03*
X05276Y084297I-00004J0D01*
G01*
X05476D02*
G03*
X05476Y084297I-00004J0D01*
G01*
X05446Y083597D02*
G03*
X05446Y083597I-00004J0D01*
G01*
X05376Y083297D02*
G03*
X05376Y083297I-00004J0D01*
G01*
X05306Y083547D02*
G03*
X05306Y083547I-00004J0D01*
G01*
X05229Y12109D02*
G03*
X05229Y12109I-00004J0D01*
G01*
X05204Y12039D02*
G03*
X05204Y12039I-00004J0D01*
G01*
X05234Y11969D02*
G03*
X05234Y11969I-00004J0D01*
G01*
X05304Y11939D02*
G03*
X05304Y11939I-00004J0D01*
G01*
Y12139D02*
G03*
X05304Y12139I-00004J0D01*
G01*
X05374Y12109D02*
G03*
X05374Y12109I-00004J0D01*
G01*
X05404Y12039D02*
G03*
X05404Y12039I-00004J0D01*
G01*
X05374Y11969D02*
G03*
X05374Y11969I-00004J0D01*
G01*
X01809Y08372D02*
G03*
X01809Y08372I-00004J0D01*
G01*
X01839Y08442D02*
G03*
X01839Y08442I-00004J0D01*
G01*
X01809Y08512D02*
G03*
X01809Y08512I-00004J0D01*
G01*
X01739Y08542D02*
G03*
X01739Y08542I-00004J0D01*
G01*
Y08342D02*
G03*
X01739Y08342I-00004J0D01*
G01*
X01669Y08372D02*
G03*
X01669Y08372I-00004J0D01*
G01*
X01639Y08442D02*
G03*
X01639Y08442I-00004J0D01*
G01*
X01664Y08512D02*
G03*
X01664Y08512I-00004J0D01*
G01*
Y12132D02*
G03*
X01664Y12132I-00004J0D01*
G01*
X01639Y12062D02*
G03*
X01639Y12062I-00004J0D01*
G01*
X01669Y11992D02*
G03*
X01669Y11992I-00004J0D01*
G01*
X01739Y11962D02*
G03*
X01739Y11962I-00004J0D01*
G01*
Y12162D02*
G03*
X01739Y12162I-00004J0D01*
G01*
X01809Y12132D02*
G03*
X01809Y12132I-00004J0D01*
G01*
X01839Y12062D02*
G03*
X01839Y12062I-00004J0D01*
G01*
X01809Y11992D02*
G03*
X01809Y11992I-00004J0D01*
G01*
X040746Y090223D02*
G03*
X040746Y090223I-00004J0D01*
G01*
X040991Y090874D02*
G03*
X040991Y090874I-00004J0D01*
G01*
X039163Y089453D02*
G03*
X039163Y089453I-00004J0D01*
G01*
X040981Y106384D02*
G03*
X040981Y106384I-00004J0D01*
G01*
X040736Y105733D02*
G03*
X040736Y105733I-00004J0D01*
G01*
X039153Y104963D02*
G03*
X039153Y104963I-00004J0D01*
G01*
X040961Y098604D02*
G03*
X040961Y098604I-00004J0D01*
G01*
X040716Y097953D02*
G03*
X040716Y097953I-00004J0D01*
G01*
X016138Y111372D02*
G03*
X016138Y111372I-00004J0D01*
G01*
Y116932D02*
G03*
X016138Y116932I-00004J0D01*
G01*
X035078Y101702D02*
G03*
X035078Y101702I-00004J0D01*
G01*
X030562Y102058D02*
G03*
X030562Y102058I-00004J0D01*
G01*
X032567Y093947D02*
G03*
X032567Y093947I-00004J0D01*
G01*
X030984Y093177D02*
G03*
X030984Y093177I-00004J0D01*
G01*
X031274Y092537D02*
G03*
X031274Y092537I-00004J0D01*
G01*
X03887Y09655D02*
G03*
X03887Y09655I-00004J0D01*
G01*
X02003Y11407D02*
G03*
X02003Y11407I-00004J0D01*
G01*
X02046D02*
G03*
X02046Y11407I-00004J0D01*
G01*
X02084Y11406D02*
G03*
X02084Y11406I-00004J0D01*
G01*
X02083Y11482D02*
G03*
X02083Y11482I-00004J0D01*
G01*
X02044Y11484D02*
G03*
X02044Y11484I-00004J0D01*
G01*
X02003Y11481D02*
G03*
X02003Y11481I-00004J0D01*
G01*
X032294Y11008D02*
G03*
X032294Y11008I-00004J0D01*
G01*
X02539Y10929D02*
G03*
X02539Y10929I-00004J0D01*
G01*
X02081Y10169D02*
G03*
X02081Y10169I-00004J0D01*
G01*
X0197Y11733D02*
G03*
X0197Y11733I-00004J0D01*
G01*
X04095Y11336D02*
G03*
X04095Y11336I-00004J0D01*
G01*
X03939Y118745D02*
G03*
X03939Y118745I-00004J0D01*
G01*
X01703Y102654D02*
G03*
X01703Y102654I-00004J0D01*
G01*
X02524D02*
G03*
X02524Y102654I-00004J0D01*
G01*
X026609Y111368D02*
G03*
X026609Y111368I-00004J0D01*
G01*
X0179Y1139D02*
G03*
X0179Y1139I-00004J0D01*
G01*
X018861Y1134D02*
G03*
X018861Y1134I-00004J0D01*
G01*
X020757Y118058D02*
G03*
X020757Y118058I-00004J0D01*
G01*
X019332Y11606D02*
G03*
X019332Y11606I-00004J0D01*
G01*
X02193Y117D02*
G03*
X02193Y117I-00004J0D01*
G01*
X02325Y11653D02*
G03*
X02325Y11653I-00004J0D01*
G01*
X02368Y11704D02*
G03*
X02368Y11704I-00004J0D01*
G01*
X02384Y11821D02*
G03*
X02384Y11821I-00004J0D01*
G01*
X02352Y11914D02*
G03*
X02352Y11914I-00004J0D01*
G01*
Y11988D02*
G03*
X02352Y11988I-00004J0D01*
G01*
X02772Y11491D02*
G03*
X02772Y11491I-00004J0D01*
G01*
X02733Y11591D02*
G03*
X02733Y11591I-00004J0D01*
G01*
X02772Y11703D02*
G03*
X02772Y11703I-00004J0D01*
G01*
X02828Y11704D02*
G03*
X02828Y11704I-00004J0D01*
G01*
X02942Y11648D02*
G03*
X02942Y11648I-00004J0D01*
G01*
Y11588D02*
G03*
X02942Y11588I-00004J0D01*
G01*
X02883Y11476D02*
G03*
X02883Y11476I-00004J0D01*
G01*
X02825Y11478D02*
G03*
X02825Y11478I-00004J0D01*
G01*
X03291Y11294D02*
G03*
X03291Y11294I-00004J0D01*
G01*
X02603Y11639D02*
G03*
X02603Y11639I-00004J0D01*
G01*
X03075Y11694D02*
G03*
X03075Y11694I-00004J0D01*
G01*
X03074Y11772D02*
G03*
X03074Y11772I-00004J0D01*
G01*
X031699Y117451D02*
G03*
X031699Y117451I-00004J0D01*
G01*
X0271Y11124D02*
G03*
X0271Y11124I-00004J0D01*
G01*
X03059Y11138D02*
G03*
X03059Y11138I-00004J0D01*
G01*
X026Y11295D02*
G03*
X026Y11295I-00004J0D01*
G01*
X026341Y113451D02*
G03*
X026341Y113451I-00004J0D01*
G01*
X026Y11495D02*
G03*
X026Y11495I-00004J0D01*
G01*
X031358Y118951D02*
G03*
X031358Y118951I-00004J0D01*
G01*
X026Y11895D02*
G03*
X026Y11895I-00004J0D01*
G01*
X03736Y09669D02*
G03*
X03736Y09669I-00004J0D01*
G01*
X03962Y12023D02*
G03*
X03962Y12023I-00004J0D01*
G01*
X03739Y10444D02*
G03*
X03739Y10444I-00004J0D01*
G01*
X03737Y08897D02*
G03*
X03737Y08897I-00004J0D01*
G01*
X02228Y11205D02*
G03*
X02228Y11205I-00004J0D01*
G01*
Y11243D02*
G03*
X02228Y11243I-00004J0D01*
G01*
X03433Y09458D02*
G03*
X03433Y09458I-00004J0D01*
G01*
X02092Y11095D02*
G03*
X02092Y11095I-00004J0D01*
G01*
X02057Y11626D02*
G03*
X02057Y11626I-00004J0D01*
G01*
X02105Y11623D02*
G03*
X02105Y11623I-00004J0D01*
G01*
X01829Y11095D02*
G03*
X01829Y11095I-00004J0D01*
G01*
X0178Y11624D02*
G03*
X0178Y11624I-00004J0D01*
G01*
X0186Y11057D02*
G03*
X0186Y11057I-00004J0D01*
G01*
Y11243D02*
G03*
X0186Y11243I-00004J0D01*
G01*
X01937Y11298D02*
G03*
X01937Y11298I-00004J0D01*
G01*
X021051Y112956D02*
G03*
X021051Y112956I-00004J0D01*
G01*
X031699Y113451D02*
G03*
X031699Y113451I-00004J0D01*
G01*
X031358Y113951D02*
G03*
X031358Y113951I-00004J0D01*
G01*
X031699Y114451D02*
G03*
X031699Y114451I-00004J0D01*
G01*
X031358Y114951D02*
G03*
X031358Y114951I-00004J0D01*
G01*
Y116951D02*
G03*
X031358Y116951I-00004J0D01*
G01*
X026341Y112451D02*
G03*
X026341Y112451I-00004J0D01*
G01*
X026Y11395D02*
G03*
X026Y11395I-00004J0D01*
G01*
X026341Y114451D02*
G03*
X026341Y114451I-00004J0D01*
G01*
X026Y11595D02*
G03*
X026Y11595I-00004J0D01*
G01*
X026341Y115451D02*
G03*
X026341Y115451I-00004J0D01*
G01*
X026Y11795D02*
G03*
X026Y11795I-00004J0D01*
G01*
X026341Y118451D02*
G03*
X026341Y118451I-00004J0D01*
G01*
M02*
