G04*
G04 #@! TF.GenerationSoftware,Altium Limited,Altium Designer,21.9.2 (33)*
G04*
G04 Layer_Color=65535*
%FSTAX24Y24*%
%MOIN*%
G70*
G04*
G04 #@! TF.SameCoordinates,99FB27D3-1440-4BB7-B033-8997F9312AF3*
G04*
G04*
G04 #@! TF.FilePolarity,Positive*
G04*
G01*
G75*
%ADD10C,0.0100*%
%ADD11C,0.0098*%
%ADD12C,0.0079*%
%ADD13C,0.0070*%
%ADD14C,0.0050*%
%ADD15C,0.0200*%
%ADD16C,0.0039*%
D10*
X054781Y085004D02*
G03*
X053771Y085571I-001061J-000707D01*
G01*
X053013Y085358D02*
G03*
X052446Y084348I000707J-001061D01*
G01*
X052644Y083603D02*
G03*
X053653Y083037I001061J000707D01*
G01*
X054427Y083237D02*
G03*
X054994Y084246I-000707J001061D01*
G01*
X051939Y119683D02*
G03*
X052949Y119116I001061J000707D01*
G01*
X052306Y121466D02*
G03*
X051739Y120457I000707J-001061D01*
G01*
X054061Y121097D02*
G03*
X053051Y121664I-001061J-000707D01*
G01*
X053707Y119329D02*
G03*
X054274Y120339I-000707J001061D01*
G01*
X018057Y083359D02*
G03*
X018624Y084369I-000707J001061D01*
G01*
X018411Y085127D02*
G03*
X017401Y085694I-001061J-000707D01*
G01*
X016656Y085496D02*
G03*
X016089Y084487I000707J-001061D01*
G01*
X016289Y083713D02*
G03*
X017299Y083146I001061J000707D01*
G01*
X016289Y119913D02*
G03*
X017299Y119346I001061J000707D01*
G01*
X016656Y121696D02*
G03*
X016089Y120687I000707J-001061D01*
G01*
X018411Y121327D02*
G03*
X017401Y121894I-001061J-000707D01*
G01*
X018057Y119559D02*
G03*
X018624Y120569I-000707J001061D01*
G01*
X04103Y08269D02*
Y08618D01*
X02925D02*
X04103D01*
X02925Y0827D02*
Y08618D01*
X047446Y109843D02*
X047488Y109886D01*
X057489Y106603D02*
Y110603D01*
X052689Y106603D02*
X057509D01*
X052739Y110603D02*
X057494D01*
X052689Y106603D02*
Y110603D01*
X05748Y114235D02*
Y118235D01*
X05268Y114235D02*
X0575D01*
X05273Y118235D02*
X057485D01*
X05268Y114235D02*
Y118235D01*
X047436Y117475D02*
X047479Y117518D01*
X024151Y089024D02*
X024195Y089067D01*
X018951Y088307D02*
Y092307D01*
X014146Y088307D02*
X018901D01*
X014131Y092307D02*
X018951D01*
X014151Y088307D02*
Y092307D01*
X047456Y094333D02*
X047498Y094376D01*
X057499Y091093D02*
Y095093D01*
X052699Y091093D02*
X057519D01*
X052749Y095093D02*
X057504D01*
X052699Y091093D02*
Y095093D01*
X047425Y102063D02*
X047469Y102106D01*
X052669Y098823D02*
Y102823D01*
X052719D02*
X057474D01*
X052669Y098823D02*
X057489D01*
X057469D02*
Y102823D01*
X03234Y08442D02*
Y08382D01*
X03264D01*
X03274Y08392D01*
Y08432D01*
X03264Y08442D01*
X03234D01*
X03334D02*
X03294D01*
Y08382D01*
X03334D01*
X03294Y08412D02*
X03314D01*
X033939Y08432D02*
X03384Y08442D01*
X03364D01*
X03354Y08432D01*
Y08422D01*
X03364Y08412D01*
X03384D01*
X033939Y08402D01*
Y08392D01*
X03384Y08382D01*
X03364D01*
X03354Y08392D01*
X034139Y08442D02*
X034339D01*
X034239D01*
Y08382D01*
X034139D01*
X034339D01*
X035039Y08432D02*
X034939Y08442D01*
X034739D01*
X034639Y08432D01*
Y08392D01*
X034739Y08382D01*
X034939D01*
X035039Y08392D01*
Y08412D01*
X034839D01*
X035239Y08382D02*
Y08442D01*
X035639Y08382D01*
Y08442D01*
X036239D02*
X035839D01*
Y08382D01*
X036239D01*
X035839Y08412D02*
X036039D01*
X036439Y08442D02*
Y08382D01*
X036739D01*
X036839Y08392D01*
Y08432D01*
X036739Y08442D01*
X036439D01*
X037638D02*
Y08382D01*
X037938D01*
X038038Y08392D01*
Y08402D01*
X037938Y08412D01*
X037638D01*
X037938D01*
X038038Y08422D01*
Y08432D01*
X037938Y08442D01*
X037638D01*
X038238D02*
Y08432D01*
X038438Y08412D01*
X038638Y08432D01*
Y08442D01*
X038438Y08412D02*
Y08382D01*
X03234Y08346D02*
Y08286D01*
X03274D01*
X03324Y08346D02*
X03304D01*
X03294Y08336D01*
Y08296D01*
X03304Y08286D01*
X03324D01*
X03334Y08296D01*
Y08336D01*
X03324Y08346D01*
X03354Y08286D02*
Y08346D01*
X033939Y08286D01*
Y08346D01*
X034539Y08336D02*
X034439Y08346D01*
X034239D01*
X034139Y08336D01*
Y08296D01*
X034239Y08286D01*
X034439D01*
X034539Y08296D01*
Y08316D01*
X034339D01*
X035339Y08346D02*
Y08286D01*
X035639D01*
X035739Y08296D01*
Y08306D01*
X035639Y08316D01*
X035339D01*
X035639D01*
X035739Y08326D01*
Y08336D01*
X035639Y08346D01*
X035339D01*
X035939Y08286D02*
Y08326D01*
X036139Y08346D01*
X036339Y08326D01*
Y08286D01*
Y08316D01*
X035939D01*
X036939Y08336D02*
X036839Y08346D01*
X036639D01*
X036539Y08336D01*
Y08296D01*
X036639Y08286D01*
X036839D01*
X036939Y08296D01*
X037138Y08346D02*
Y08286D01*
Y08316D01*
X037538D01*
Y08346D01*
Y08286D01*
X01654Y12284D02*
X01634D01*
X01644D01*
Y12234D01*
X01634Y12224D01*
X01624D01*
X01614Y12234D01*
X01704Y12224D02*
Y12284D01*
X01674Y12254D01*
X01714D01*
X01654Y08664D02*
X01634D01*
X01644D01*
Y08614D01*
X01634Y08604D01*
X01624D01*
X01614Y08614D01*
X01674Y08654D02*
X01684Y08664D01*
X01704D01*
X01714Y08654D01*
Y08644D01*
X01704Y08634D01*
X01694D01*
X01704D01*
X01714Y08624D01*
Y08614D01*
X01704Y08604D01*
X01684D01*
X01674Y08614D01*
X05219Y12261D02*
X05199D01*
X05209D01*
Y12211D01*
X05199Y12201D01*
X05189D01*
X05179Y12211D01*
X05279Y12201D02*
X05239D01*
X05279Y12241D01*
Y12251D01*
X05269Y12261D01*
X05249D01*
X05239Y12251D01*
X0529Y086517D02*
X0527D01*
X0528D01*
Y086017D01*
X0527Y085917D01*
X0526D01*
X0525Y086017D01*
X0531Y085917D02*
X0533D01*
X0532D01*
Y086517D01*
X0531Y086417D01*
X01595Y12305D02*
Y12245D01*
X01635D01*
X01655D02*
X01675D01*
X01665D01*
Y12305D01*
X01655Y12295D01*
X02598Y09354D02*
Y09414D01*
X02628D01*
X02638Y09404D01*
Y09384D01*
X02628Y09374D01*
X02598D01*
X02618D02*
X02638Y09354D01*
X02658Y09414D02*
Y09354D01*
X02698D01*
X02758D02*
X02718D01*
X02758Y09394D01*
Y09404D01*
X02748Y09414D01*
X02728D01*
X02718Y09404D01*
X0161Y09108D02*
X0167D01*
Y09078D01*
X0166Y09068D01*
X0164D01*
X0163Y09078D01*
Y09108D01*
X0161Y09008D02*
Y09048D01*
X0165Y09008D01*
X0166D01*
X0167Y09018D01*
Y09038D01*
X0166Y09048D01*
X01987Y09559D02*
X01977Y09569D01*
X01957D01*
X01947Y09559D01*
Y09519D01*
X01957Y09509D01*
X01977D01*
X01987Y09519D01*
X02047Y09569D02*
X02027Y09559D01*
X02007Y09539D01*
Y09519D01*
X02017Y09509D01*
X02037D01*
X02047Y09519D01*
Y09529D01*
X02037Y09539D01*
X02007D01*
X03684Y09532D02*
Y09482D01*
X03694Y09472D01*
X03714D01*
X03724Y09482D01*
Y09532D01*
X03744D02*
X03784D01*
Y09522D01*
X03744Y09482D01*
Y09472D01*
X03681Y10305D02*
Y10255D01*
X03691Y10245D01*
X03711D01*
X03721Y10255D01*
Y10305D01*
X03781D02*
X03761Y10295D01*
X03741Y10275D01*
Y10255D01*
X03751Y10245D01*
X03771D01*
X03781Y10255D01*
Y10265D01*
X03771Y10275D01*
X03741D01*
X03683Y11083D02*
Y11033D01*
X03693Y11023D01*
X03713D01*
X03723Y11033D01*
Y11083D01*
X03773Y11023D02*
Y11083D01*
X03743Y11053D01*
X03783D01*
X04446Y094248D02*
Y094848D01*
X04476D01*
X04486Y094748D01*
Y094548D01*
X04476Y094448D01*
X04446D01*
X04466D02*
X04486Y094248D01*
X04506Y094848D02*
Y094248D01*
X045459D01*
X046059Y094848D02*
X045659D01*
Y094548D01*
X045859Y094648D01*
X045959D01*
X046059Y094548D01*
Y094348D01*
X045959Y094248D01*
X045759D01*
X045659Y094348D01*
X04452Y10202D02*
Y10262D01*
X04482D01*
X04492Y10252D01*
Y10232D01*
X04482Y10222D01*
X04452D01*
X04472D02*
X04492Y10202D01*
X04512Y10262D02*
Y10202D01*
X04552D01*
X04602D02*
Y10262D01*
X04572Y10232D01*
X04612D01*
X04444Y10976D02*
Y11036D01*
X04474D01*
X04484Y11026D01*
Y11006D01*
X04474Y10996D01*
X04444D01*
X04464D02*
X04484Y10976D01*
X04504Y11036D02*
Y10976D01*
X04544D01*
X04564Y11026D02*
X04574Y11036D01*
X04594D01*
X04604Y11026D01*
Y11016D01*
X04594Y11006D01*
X04584D01*
X04594D01*
X04604Y10996D01*
Y10986D01*
X04594Y10976D01*
X04574D01*
X04564Y10986D01*
X055409Y092788D02*
X05481D01*
Y093088D01*
X05491Y093188D01*
X055109D01*
X055209Y093088D01*
Y092788D01*
X05481Y093788D02*
Y093388D01*
X055109D01*
X055009Y093588D01*
Y093688D01*
X055109Y093788D01*
X055309D01*
X055409Y093688D01*
Y093488D01*
X055309Y093388D01*
X05541Y10052D02*
X05481D01*
Y10082D01*
X05491Y10092D01*
X05511D01*
X05521Y10082D01*
Y10052D01*
X05541Y10142D02*
X05481D01*
X05511Y10112D01*
Y10152D01*
X05537Y10828D02*
X05477D01*
Y10858D01*
X05487Y10868D01*
X05507D01*
X05517Y10858D01*
Y10828D01*
X05487Y10888D02*
X05477Y10898D01*
Y10918D01*
X05487Y10928D01*
X05497D01*
X05507Y10918D01*
Y10908D01*
Y10918D01*
X05517Y10928D01*
X05527D01*
X05537Y10918D01*
Y10898D01*
X05527Y10888D01*
X03892Y093368D02*
X039519D01*
Y093668D01*
X039419Y093768D01*
X03902D01*
X03892Y093668D01*
Y093368D01*
X039519Y093968D02*
Y094168D01*
Y094068D01*
X03892D01*
X03902Y093968D01*
Y094468D02*
X03892Y094568D01*
Y094768D01*
X03902Y094868D01*
X039419D01*
X039519Y094768D01*
Y094568D01*
X039419Y094468D01*
X03902D01*
X0389Y10139D02*
X0395D01*
Y10169D01*
X0394Y10179D01*
X039D01*
X0389Y10169D01*
Y10139D01*
Y10199D02*
Y10239D01*
X039D01*
X0394Y10199D01*
X0395D01*
X03892Y1092D02*
X03952D01*
Y1095D01*
X03942Y1096D01*
X03902D01*
X03892Y1095D01*
Y1092D01*
X03952Y1101D02*
X03892D01*
X03922Y1098D01*
Y1102D01*
X04992Y094578D02*
X04982Y094678D01*
X04962D01*
X04952Y094578D01*
Y094178D01*
X04962Y094078D01*
X04982D01*
X04992Y094178D01*
X050119Y094078D02*
X050319D01*
X050219D01*
Y094678D01*
X050119Y094578D01*
X050619Y094078D02*
X050819D01*
X050719D01*
Y094678D01*
X050619Y094578D01*
X04984Y10249D02*
X04974Y10259D01*
X04954D01*
X04944Y10249D01*
Y10209D01*
X04954Y10199D01*
X04974D01*
X04984Y10209D01*
X05004Y10199D02*
X05024D01*
X05014D01*
Y10259D01*
X05004Y10249D01*
X05054D02*
X05064Y10259D01*
X05084D01*
X05094Y10249D01*
Y10209D01*
X05084Y10199D01*
X05064D01*
X05054Y10209D01*
Y10249D01*
X04985Y11025D02*
X04975Y11035D01*
X04955D01*
X04945Y11025D01*
Y10985D01*
X04955Y10975D01*
X04975D01*
X04985Y10985D01*
X05005Y11035D02*
X05045D01*
Y11025D01*
X05005Y10985D01*
Y10975D01*
X04307Y1187D02*
Y1182D01*
X04317Y1181D01*
X04337D01*
X04347Y1182D01*
Y1187D01*
X04367Y1181D02*
X04387D01*
X04377D01*
Y1187D01*
X04367Y1186D01*
X04435Y1174D02*
Y118D01*
X04465D01*
X04475Y1179D01*
Y1177D01*
X04465Y1176D01*
X04435D01*
X04455D02*
X04475Y1174D01*
X04495Y118D02*
Y1174D01*
X04535D01*
X04555D02*
X04575D01*
X04565D01*
Y118D01*
X04555Y1179D01*
X0553Y11605D02*
X0547D01*
Y11635D01*
X0548Y11645D01*
X055D01*
X0551Y11635D01*
Y11605D01*
X0553Y11665D02*
Y11685D01*
Y11675D01*
X0547D01*
X0548Y11665D01*
X04003Y118275D02*
X04063D01*
Y118575D01*
X04053Y118675D01*
X04013D01*
X04003Y118575D01*
Y118275D01*
X04063Y118874D02*
Y119074D01*
Y118974D01*
X04003D01*
X04013Y118874D01*
X04988Y11792D02*
X04978Y11802D01*
X04958D01*
X04948Y11792D01*
Y11752D01*
X04958Y11742D01*
X04978D01*
X04988Y11752D01*
X05038Y11742D02*
Y11802D01*
X05008Y11772D01*
X05048D01*
X02401Y12174D02*
Y12124D01*
X024109Y12114D01*
X024309D01*
X024409Y12124D01*
Y12174D01*
X025009Y12114D02*
X024609D01*
X025009Y12154D01*
Y12164D01*
X024909Y12174D01*
X024709D01*
X024609Y12164D01*
D11*
X021948Y113849D02*
G03*
X021948Y113849I-000049J0D01*
G01*
X024931Y11897D02*
G03*
X024931Y11897I-000049J0D01*
G01*
X023654Y11818D02*
G03*
X023654Y11818I-000049J0D01*
G01*
X039989Y118371D02*
G03*
X039989Y118371I-000049J0D01*
G01*
X039278Y104958D02*
G03*
X039278Y104958I-000049J0D01*
G01*
X039258Y097178D02*
G03*
X039258Y097178I-000049J0D01*
G01*
X039288Y089448D02*
G03*
X039288Y089448I-000049J0D01*
G01*
X03246Y093952D02*
G03*
X03246Y093952I-000049J0D01*
G01*
X021356Y117592D02*
G03*
X021356Y117592I-000049J0D01*
G01*
D12*
X040533Y120754D02*
G03*
X040533Y120754I-000079J0D01*
G01*
X041969Y120281D02*
G03*
X041969Y120281I-000176J0D01*
G01*
X036925Y105472D02*
G03*
X036925Y105472I-000079J0D01*
G01*
X037494Y10681D02*
G03*
X037494Y10681I-000176J0D01*
G01*
X036905Y097692D02*
G03*
X036905Y097692I-000079J0D01*
G01*
X037474Y09903D02*
G03*
X037474Y09903I-000176J0D01*
G01*
X036935Y089962D02*
G03*
X036935Y089962I-000079J0D01*
G01*
X037504Y0913D02*
G03*
X037504Y0913I-000176J0D01*
G01*
X034873Y093438D02*
G03*
X034873Y093438I-000079J0D01*
G01*
X034498Y0921D02*
G03*
X034498Y0921I-000176J0D01*
G01*
X019181Y11494D02*
G03*
X019181Y11494I-000039J0D01*
G01*
Y114465D02*
G03*
X019181Y114465I-000039J0D01*
G01*
Y11399D02*
G03*
X019181Y11399I-000039J0D01*
G01*
X018059Y114885D02*
G03*
X018059Y114885I-000039J0D01*
G01*
X018809Y118186D02*
G03*
X018809Y118186I-000039J0D01*
G01*
X021974Y104186D02*
G03*
X021974Y104186I-000039J0D01*
G01*
X03587D02*
G03*
X03587Y104186I-000039J0D01*
G01*
X016039Y099604D02*
G03*
X016039Y099604I-000039J0D01*
G01*
X029966Y099906D02*
G03*
X029966Y099906I-000039J0D01*
G01*
X022987Y099604D02*
G03*
X022987Y099604I-000039J0D01*
G01*
X021206Y113456D02*
X021404D01*
X019436D02*
X019634D01*
X019436Y115226D02*
Y115424D01*
Y113456D02*
Y113654D01*
X021206Y115424D02*
X021404D01*
X019436D02*
X019634D01*
X021404Y115226D02*
Y115424D01*
Y113456D02*
Y113654D01*
X025237Y119275D02*
Y121929D01*
Y11183D02*
Y112126D01*
X031384Y11183D02*
X032382D01*
X025237D02*
X026235D01*
X032382Y119275D02*
Y121929D01*
Y11183D02*
Y112126D01*
X025237Y121929D02*
X032382D01*
X022571Y118495D02*
X02328D01*
X022571Y117865D02*
X02328D01*
X040255Y118696D02*
Y119404D01*
X039625Y118696D02*
Y119404D01*
X038195Y105273D02*
X038904D01*
X038195Y104643D02*
X038904D01*
X038175Y097493D02*
X038884D01*
X038175Y096863D02*
X038884D01*
X038205Y089763D02*
X038914D01*
X038205Y089133D02*
X038914D01*
X032736Y093637D02*
X033445D01*
X032736Y094267D02*
X033445D01*
X02338Y11676D02*
Y11736D01*
X02208D02*
X02338D01*
X02208Y11676D02*
Y11736D01*
Y11676D02*
X02338D01*
X02323Y11883D02*
Y11943D01*
X02193D02*
X02323D01*
X02193Y11883D02*
Y11943D01*
Y11883D02*
X02323D01*
Y11957D02*
Y12017D01*
X02193D02*
X02323D01*
X02193Y11957D02*
Y12017D01*
Y11957D02*
X02323D01*
X041379Y118824D02*
Y120636D01*
Y118824D02*
X043781D01*
Y120636D01*
X041379D02*
X043781D01*
X036964Y106397D02*
X038775D01*
Y108799D01*
X036964D02*
X038775D01*
X036964Y106397D02*
Y108799D01*
X036944Y098617D02*
X038755D01*
Y101019D01*
X036944D02*
X038755D01*
X036944Y098617D02*
Y101019D01*
X036974Y090887D02*
X038785D01*
Y093289D01*
X036974D02*
X038785D01*
X036974Y090887D02*
Y093289D01*
X032865Y092513D02*
X034676D01*
X032865Y090112D02*
Y092513D01*
Y090112D02*
X034676D01*
Y092513D01*
X018684Y111521D02*
X01894D01*
X018684Y111235D02*
Y111521D01*
Y110379D02*
X01894D01*
X018684D02*
Y110665D01*
X020929Y110379D02*
X021185D01*
Y110665D01*
X020929Y111521D02*
X021185D01*
Y111235D02*
Y111521D01*
X040861Y114365D02*
Y114621D01*
X040575D02*
X040861D01*
X039719Y114365D02*
Y114621D01*
X040005D01*
X04087Y106733D02*
Y106989D01*
X040585D02*
X04087D01*
X039729Y106733D02*
Y106989D01*
X040014D01*
X04085Y098953D02*
Y099209D01*
X040565D02*
X04085D01*
X039709Y098953D02*
Y099209D01*
X039994D01*
X04088Y091223D02*
Y091479D01*
X040595D02*
X04088D01*
X039739Y091223D02*
Y091479D01*
X040024D01*
X03077Y091921D02*
Y092177D01*
Y091921D02*
X031055D01*
X031911D02*
Y092177D01*
X031626Y091921D02*
X031911D01*
X01928Y117689D02*
X02066D01*
X01928D02*
Y120251D01*
X02066D01*
Y117689D02*
Y120251D01*
X039659Y115884D02*
Y11799D01*
X040841Y115884D02*
Y11799D01*
X039659D02*
X040841D01*
X039709Y108487D02*
Y110594D01*
X04089Y108487D02*
Y110594D01*
X039709D02*
X04089D01*
X039689Y100707D02*
Y102814D01*
X04087Y100707D02*
Y102814D01*
X039689D02*
X04087D01*
X039719Y092977D02*
Y095084D01*
X0409Y092977D02*
Y095084D01*
X039719D02*
X0409D01*
X031931Y088317D02*
Y090423D01*
X03075Y088317D02*
Y090423D01*
Y088317D02*
X031931D01*
X039451Y11415D02*
X039189D01*
X039123Y114084D01*
Y113953D01*
X039189Y113888D01*
X039451D01*
X039517Y113953D01*
Y114084D01*
X039386Y114019D02*
X039517Y11415D01*
Y114084D02*
X039451Y11415D01*
X039517Y114281D02*
Y114412D01*
Y114347D01*
X039123D01*
X039189Y114281D01*
D13*
X042552Y106939D02*
G03*
X042562Y108099I-000575J000585D01*
G01*
X044682Y107529D02*
G03*
X044682Y107529I-000178J0D01*
G01*
X046995Y106636D02*
G03*
X046995Y106636I-000178J0D01*
G01*
X047005Y108146D02*
G03*
X047005Y108146I-000178J0D01*
G01*
X046996Y115778D02*
G03*
X046996Y115778I-000178J0D01*
G01*
X046986Y114268D02*
G03*
X046986Y114268I-000178J0D01*
G01*
X044672Y115161D02*
G03*
X044672Y115161I-000178J0D01*
G01*
X042542Y114571D02*
G03*
X042552Y115731I-000575J000585D01*
G01*
X029088Y091971D02*
G03*
X029078Y090811I000575J-000585D01*
G01*
X027314Y091381D02*
G03*
X027314Y091381I-000178J0D01*
G01*
X025001Y092274D02*
G03*
X025001Y092274I-000178J0D01*
G01*
X024991Y090764D02*
G03*
X024991Y090764I-000178J0D01*
G01*
X047015Y092636D02*
G03*
X047015Y092636I-000178J0D01*
G01*
X047005Y091126D02*
G03*
X047005Y091126I-000178J0D01*
G01*
X044692Y092019D02*
G03*
X044692Y092019I-000178J0D01*
G01*
X042562Y091429D02*
G03*
X042572Y092589I-000575J000585D01*
G01*
X046985Y100366D02*
G03*
X046985Y100366I-000178J0D01*
G01*
X046975Y098856D02*
G03*
X046975Y098856I-000178J0D01*
G01*
X044662Y099749D02*
G03*
X044662Y099749I-000178J0D01*
G01*
X042532Y099159D02*
G03*
X042542Y100319I-000575J000585D01*
G01*
X048909Y104412D02*
Y110618D01*
X041275Y104412D02*
Y110618D01*
Y104412D02*
X048909D01*
X041275Y110618D02*
X048909D01*
X042552Y108109D02*
Y109249D01*
X042542Y105799D02*
Y106929D01*
X044702Y107529D02*
X046345D01*
X042259Y107519D02*
X044302D01*
X047265Y108466D02*
Y109226D01*
X047005Y108206D02*
X047265Y108466D01*
Y105706D02*
Y106366D01*
X046995Y106636D02*
X047265Y106366D01*
X046345Y107528D02*
X046735Y107918D01*
X046336Y11516D02*
X046726Y11555D01*
X046986Y114268D02*
X047256Y113998D01*
Y113338D02*
Y113998D01*
X046996Y115838D02*
X047256Y116098D01*
Y116858D01*
X04225Y115151D02*
X044292D01*
X044692Y115161D02*
X046336D01*
X042532Y113431D02*
Y114561D01*
X042542Y115741D02*
Y116881D01*
X041266Y11825D02*
X0489D01*
X041266Y112044D02*
X0489D01*
X041266D02*
Y11825D01*
X0489Y112044D02*
Y11825D01*
X022731Y088292D02*
Y094498D01*
X030365Y088292D02*
Y094498D01*
X022731D02*
X030365D01*
X022731Y088292D02*
X030365D01*
X029088Y089661D02*
Y090801D01*
X029098Y091981D02*
Y093111D01*
X025295Y091381D02*
X026938D01*
X027338Y091391D02*
X029381D01*
X024375Y089684D02*
Y090444D01*
X024635Y090704D01*
X024375Y092544D02*
Y093204D01*
Y092544D02*
X024645Y092274D01*
X024905Y090992D02*
X025295Y091382D01*
X046355Y092018D02*
X046745Y092408D01*
X047005Y091126D02*
X047275Y090856D01*
Y090196D02*
Y090856D01*
X047015Y092696D02*
X047275Y092956D01*
Y093716D01*
X042269Y092009D02*
X044312D01*
X044712Y092019D02*
X046355D01*
X042552Y090289D02*
Y091419D01*
X042562Y092599D02*
Y093739D01*
X041285Y095108D02*
X048919D01*
X041285Y088902D02*
X048919D01*
X041285D02*
Y095108D01*
X048919Y088902D02*
Y095108D01*
X046325Y099748D02*
X046715Y100138D01*
X046975Y098856D02*
X047245Y098586D01*
Y097926D02*
Y098586D01*
X046985Y100426D02*
X047245Y100686D01*
Y101446D01*
X042239Y099739D02*
X044282D01*
X044682Y099749D02*
X046325D01*
X042522Y098019D02*
Y099149D01*
X042532Y100329D02*
Y101469D01*
X041255Y102838D02*
X048889D01*
X041255Y096632D02*
X048889D01*
X041255D02*
Y102838D01*
X048889Y096632D02*
Y102838D01*
D14*
X049325Y110696D02*
Y118177D01*
X052395Y110696D02*
Y118177D01*
X049325D02*
X052395D01*
X049325Y110696D02*
X052395D01*
X049334Y103064D02*
Y110545D01*
X052405Y103064D02*
Y110545D01*
X049334D02*
X052405D01*
X049334Y103064D02*
X052405D01*
X049314Y095284D02*
Y102765D01*
X052385Y095284D02*
Y102765D01*
X049314D02*
X052385D01*
X049314Y095284D02*
X052385D01*
X049314Y087561D02*
Y095042D01*
X052385Y087561D02*
Y095042D01*
X049314D02*
X052385D01*
X049314Y087561D02*
X052385D01*
X022336Y088359D02*
Y095839D01*
X019265Y088359D02*
Y095839D01*
Y088359D02*
X022336D01*
X019265Y095839D02*
X022336D01*
X018315Y115145D02*
X018787D01*
X018315Y114735D02*
X018787D01*
X018315Y11467D02*
X018787D01*
X018315Y11426D02*
X018787D01*
X018315Y114195D02*
X018787D01*
X018315Y113785D02*
X018787D01*
X017502Y115692D02*
Y115869D01*
Y112916D02*
Y113094D01*
X016872Y112916D02*
X017502D01*
X016872Y115869D02*
X017502D01*
X015789D02*
X015848D01*
X015789Y112916D02*
X015848D01*
X015789D02*
Y115869D01*
X019026Y116985D02*
Y117655D01*
X018514Y116985D02*
Y117655D01*
X021226Y102848D02*
Y103635D01*
X016501Y102848D02*
X021226D01*
X016501D02*
Y103635D01*
X021226Y106785D02*
Y107572D01*
X016501D02*
X021226D01*
X016501Y106785D02*
Y107572D01*
X035122Y102848D02*
Y103635D01*
X030398Y102848D02*
X035122D01*
X030398D02*
Y103635D01*
X035122Y106785D02*
Y107572D01*
X030398D02*
X035122D01*
X030398Y106785D02*
Y107572D01*
X016708Y100155D02*
Y100942D01*
X021432D01*
Y100155D02*
Y100942D01*
X016708Y096218D02*
Y097005D01*
Y096218D02*
X021432D01*
Y097005D01*
X030635Y100457D02*
Y101245D01*
X035359D01*
Y100457D02*
Y101245D01*
X030635Y09652D02*
Y097308D01*
Y09652D02*
X035359D01*
Y097308D01*
X023656Y100155D02*
Y100942D01*
X028381D01*
Y100155D02*
Y100942D01*
X023656Y096218D02*
Y097005D01*
Y096218D02*
X028381D01*
Y097005D01*
D15*
X01595Y12205D02*
X0384D01*
X01595Y1085D02*
Y12205D01*
Y1085D02*
X0384D01*
Y12205D01*
X03083Y08575D02*
X03073Y08585D01*
X03053D01*
X03043Y08575D01*
Y08535D01*
X03053Y08525D01*
X03073D01*
X03083Y08535D01*
Y08555D01*
X03063D01*
X03103Y08565D02*
Y08525D01*
Y08545D01*
X03113Y08555D01*
X03123Y08565D01*
X03133D01*
X03173D02*
X03193D01*
X032029Y08555D01*
Y08525D01*
X03173D01*
X03163Y08535D01*
X03173Y08545D01*
X032029D01*
X032629Y08585D02*
Y08525D01*
X032329D01*
X032229Y08535D01*
Y08555D01*
X032329Y08565D01*
X032629D01*
X032829D02*
Y08535D01*
X032929Y08525D01*
X033229D01*
Y08565D01*
X033529D02*
X033729D01*
X033829Y08555D01*
Y08525D01*
X033529D01*
X033429Y08535D01*
X033529Y08545D01*
X033829D01*
X034129Y08575D02*
Y08565D01*
X034029D01*
X034229D01*
X034129D01*
Y08535D01*
X034229Y08525D01*
X034529D02*
X034729D01*
X034629D01*
Y08565D01*
X034529D01*
X035128Y08525D02*
X035328D01*
X035428Y08535D01*
Y08555D01*
X035328Y08565D01*
X035128D01*
X035029Y08555D01*
Y08535D01*
X035128Y08525D01*
X035628D02*
Y08565D01*
X035928D01*
X036028Y08555D01*
Y08525D01*
X036828Y08505D02*
Y08565D01*
X037128D01*
X037228Y08555D01*
Y08535D01*
X037128Y08525D01*
X036828D01*
X037428Y08565D02*
Y08525D01*
Y08545D01*
X037528Y08555D01*
X037628Y08565D01*
X037728D01*
X038128Y08525D02*
X038327D01*
X038427Y08535D01*
Y08555D01*
X038327Y08565D01*
X038128D01*
X038028Y08555D01*
Y08535D01*
X038128Y08525D01*
X038627Y08505D02*
X038727D01*
X038827Y08515D01*
Y08565D01*
X039527Y08525D02*
X039327D01*
X039227Y08535D01*
Y08555D01*
X039327Y08565D01*
X039527D01*
X039627Y08555D01*
Y08545D01*
X039227D01*
X040227Y08565D02*
X039927D01*
X039827Y08555D01*
Y08535D01*
X039927Y08525D01*
X040227D01*
X040527Y08575D02*
Y08565D01*
X040427D01*
X040627D01*
X040527D01*
Y08535D01*
X040627Y08525D01*
D16*
X02207Y11636D02*
X02277D01*
X02207D02*
Y11666D01*
X02277D01*
Y11636D02*
Y11666D01*
X01646Y110346D02*
Y111046D01*
X01676D01*
Y110346D02*
Y111046D01*
X01646Y110346D02*
X01676D01*
X01683Y11791D02*
Y11861D01*
X01653Y11791D02*
X01683D01*
X01653D02*
Y11861D01*
X01683D01*
X02145Y11647D02*
Y11717D01*
X02115Y11647D02*
X02145D01*
X02115D02*
Y11717D01*
X02145D01*
X02108Y11647D02*
Y11717D01*
X02078Y11647D02*
X02108D01*
X02078D02*
Y11717D01*
X02108D01*
X0211Y10153D02*
Y10223D01*
X0214D01*
Y10153D02*
Y10223D01*
X0211Y10153D02*
X0214D01*
X03462D02*
Y10223D01*
X03492D01*
Y10153D02*
Y10223D01*
X03462Y10153D02*
X03492D01*
X01715D02*
Y10223D01*
X01685Y10153D02*
X01715D01*
X01685D02*
Y10223D01*
X01715D01*
X03094Y10153D02*
Y10223D01*
X03064Y10153D02*
X03094D01*
X03064D02*
Y10223D01*
X03094D01*
X02536Y10153D02*
Y10223D01*
X02506Y10153D02*
X02536D01*
X02506D02*
Y10223D01*
X02536D01*
X01715Y111046D02*
X01745D01*
X01715Y110346D02*
Y111046D01*
Y110346D02*
X01745D01*
Y111046D01*
X01722Y11791D02*
X01752D01*
Y11861D01*
X01722D02*
X01752D01*
X01722Y11791D02*
Y11861D01*
X02193Y11801D02*
X02223D01*
Y11871D01*
X02193D02*
X02223D01*
X02193Y11801D02*
Y11871D01*
X02163Y11191D02*
Y11221D01*
X02093D02*
X02163D01*
X02093Y11191D02*
Y11221D01*
Y11191D02*
X02163D01*
Y11229D02*
Y11259D01*
X02093D02*
X02163D01*
X02093Y11229D02*
Y11259D01*
Y11229D02*
X02163D01*
X01986Y10223D02*
X02016D01*
X01986Y10153D02*
Y10223D01*
Y10153D02*
X02016D01*
Y10223D01*
X033293D02*
X033593D01*
X033293Y10153D02*
Y10223D01*
Y10153D02*
X033593D01*
Y10223D01*
X01829Y10153D02*
X01859D01*
Y10223D01*
X01829D02*
X01859D01*
X01829Y10153D02*
Y10223D01*
X031967Y10153D02*
X032267D01*
Y10223D01*
X031967D02*
X032267D01*
X031967Y10153D02*
Y10223D01*
X01912Y11687D02*
Y11717D01*
Y11687D02*
X01982D01*
Y11717D01*
X01912D02*
X01982D01*
X01949Y11228D02*
Y11258D01*
X01879D02*
X01949D01*
X01879Y11228D02*
Y11258D01*
Y11228D02*
X01949D01*
X02038Y11717D02*
X02068D01*
X02038Y11647D02*
Y11717D01*
Y11647D02*
X02068D01*
Y11717D01*
X01997D02*
X02027D01*
X01997Y11647D02*
Y11717D01*
Y11647D02*
X02027D01*
Y11717D01*
X01912Y1165D02*
Y1168D01*
Y1165D02*
X01982D01*
Y1168D01*
X01912D02*
X01982D01*
X01949Y111923D02*
Y112223D01*
X01879D02*
X01949D01*
X01879Y111923D02*
Y112223D01*
Y111923D02*
X01949D01*
X039815Y120074D02*
X040115D01*
Y120774D01*
X039815D02*
X040115D01*
X039815Y120074D02*
Y120774D01*
X03988Y112465D02*
Y112765D01*
Y112465D02*
X04058D01*
Y112765D01*
X03988D02*
X04058D01*
Y11321D02*
Y11351D01*
X03988D02*
X04058D01*
X03988Y11321D02*
Y11351D01*
Y11321D02*
X04058D01*
X037525Y104833D02*
Y105133D01*
X036825D02*
X037525D01*
X036825Y104833D02*
Y105133D01*
Y104833D02*
X037525D01*
X039889D02*
Y105133D01*
Y104833D02*
X040589D01*
Y105133D01*
X039889D02*
X040589D01*
Y105578D02*
Y105878D01*
X039889D02*
X040589D01*
X039889Y105578D02*
Y105878D01*
Y105578D02*
X040589D01*
X037505Y097053D02*
Y097353D01*
X036805D02*
X037505D01*
X036805Y097053D02*
Y097353D01*
Y097053D02*
X037505D01*
X039869D02*
Y097353D01*
Y097053D02*
X040569D01*
Y097353D01*
X039869D02*
X040569D01*
Y097798D02*
Y098098D01*
X039869D02*
X040569D01*
X039869Y097798D02*
Y098098D01*
Y097798D02*
X040569D01*
X037505Y08933D02*
Y08963D01*
X036805D02*
X037505D01*
X036805Y08933D02*
Y08963D01*
Y08933D02*
X037505D01*
X039899Y089323D02*
Y089623D01*
Y089323D02*
X040599D01*
Y089623D01*
X039899D02*
X040599D01*
Y090068D02*
Y090368D01*
X039899D02*
X040599D01*
X039899Y090068D02*
Y090368D01*
Y090068D02*
X040599D01*
X034145Y09377D02*
Y09407D01*
Y09377D02*
X034845D01*
Y09407D01*
X034145D02*
X034845D01*
X031751Y093777D02*
Y094077D01*
X031051D02*
X031751D01*
X031051Y093777D02*
Y094077D01*
Y093777D02*
X031751D01*
X031051Y093032D02*
Y093332D01*
Y093032D02*
X031751D01*
Y093332D01*
X031051D02*
X031751D01*
X02391Y10153D02*
X02421D01*
Y10223D01*
X02391D02*
X02421D01*
X02391Y10153D02*
Y10223D01*
X032512Y092166D02*
X032676D01*
X032708Y092199D01*
Y092264D01*
X032676Y092297D01*
X032512D01*
X032544Y092363D02*
X032512Y092396D01*
Y092461D01*
X032544Y092494D01*
X032577D01*
X03261Y092461D01*
Y092428D01*
Y092461D01*
X032643Y092494D01*
X032676D01*
X032708Y092461D01*
Y092396D01*
X032676Y092363D01*
X023789Y101236D02*
X023756Y101268D01*
X02369D01*
X023658Y101236D01*
Y101203D01*
X02369Y10117D01*
X023756D01*
X023789Y101137D01*
Y101104D01*
X023756Y101072D01*
X02369D01*
X023658Y101104D01*
X023854Y101268D02*
Y101072D01*
X02392Y101137D01*
X023986Y101072D01*
Y101268D01*
X024051Y101236D02*
X024084Y101268D01*
X02415D01*
X024182Y101236D01*
Y101203D01*
X02415Y10117D01*
X024117D01*
X02415D01*
X024182Y101137D01*
Y101104D01*
X02415Y101072D01*
X024084D01*
X024051Y101104D01*
X02385Y102392D02*
Y102588D01*
X023949D01*
X023982Y102556D01*
Y10249D01*
X023949Y102457D01*
X02385D01*
X023916D02*
X023982Y102392D01*
X024178D02*
X024047D01*
X024178Y102523D01*
Y102556D01*
X024146Y102588D01*
X02408D01*
X024047Y102556D01*
X024244Y102392D02*
X02431D01*
X024277D01*
Y102588D01*
X024244Y102556D01*
X031144Y093442D02*
Y093638D01*
X031242D01*
X031275Y093606D01*
Y09354D01*
X031242Y093507D01*
X031144D01*
X03121D02*
X031275Y093442D01*
X031341D02*
X031406D01*
X031374D01*
Y093638D01*
X031341Y093606D01*
X031505D02*
X031538Y093638D01*
X031603D01*
X031636Y093606D01*
Y093474D01*
X031603Y093442D01*
X031538D01*
X031505Y093474D01*
Y093606D01*
X031216Y094152D02*
Y094348D01*
X031314D01*
X031347Y094316D01*
Y09425D01*
X031314Y094217D01*
X031216D01*
X031282D02*
X031347Y094152D01*
X031413Y094316D02*
X031446Y094348D01*
X031511D01*
X031544Y094316D01*
Y094283D01*
X031511Y09425D01*
X031544Y094217D01*
Y094184D01*
X031511Y094152D01*
X031446D01*
X031413Y094184D01*
Y094217D01*
X031446Y09425D01*
X031413Y094283D01*
Y094316D01*
X031446Y09425D02*
X031511D01*
X034316Y094202D02*
Y094398D01*
X034414D01*
X034447Y094366D01*
Y0943D01*
X034414Y094267D01*
X034316D01*
X034382D02*
X034447Y094202D01*
X034644Y094398D02*
X034578Y094366D01*
X034513Y0943D01*
Y094234D01*
X034546Y094202D01*
X034611D01*
X034644Y094234D01*
Y094267D01*
X034611Y0943D01*
X034513D01*
X030797Y091614D02*
Y091746D01*
X030764Y091778D01*
X030699D01*
X030666Y091746D01*
Y091614D01*
X030699Y091582D01*
X030764D01*
X030732Y091647D02*
X030797Y091582D01*
X030764D02*
X030797Y091614D01*
X030994Y091582D02*
X030863D01*
X030994Y091713D01*
Y091746D01*
X030961Y091778D01*
X030896D01*
X030863Y091746D01*
X032916Y094628D02*
Y094432D01*
X033014D01*
X033047Y094464D01*
Y094596D01*
X033014Y094628D01*
X032916D01*
X033244D02*
X033113D01*
Y09453D01*
X033178Y094563D01*
X033211D01*
X033244Y09453D01*
Y094464D01*
X033211Y094432D01*
X033146D01*
X033113Y094464D01*
X031156Y090978D02*
Y090782D01*
X031254D01*
X031287Y090814D01*
Y090946D01*
X031254Y090978D01*
X031156D01*
X031353Y090946D02*
X031386Y090978D01*
X031451D01*
X031484Y090946D01*
Y090913D01*
X031451Y09088D01*
X031418D01*
X031451D01*
X031484Y090847D01*
Y090814D01*
X031451Y090782D01*
X031386D01*
X031353Y090814D01*
X025065Y102536D02*
X025032Y102568D01*
X024967D01*
X024934Y102536D01*
Y102404D01*
X024967Y102372D01*
X025032D01*
X025065Y102404D01*
X025131Y102372D02*
X025196D01*
X025164D01*
Y102568D01*
X025131Y102536D01*
X025393Y102372D02*
Y102568D01*
X025295Y10247D01*
X025426D01*
X040004Y089742D02*
Y089938D01*
X040102D01*
X040135Y089906D01*
Y08984D01*
X040102Y089807D01*
X040004D01*
X04007D02*
X040135Y089742D01*
X040201D02*
X040266D01*
X040234D01*
Y089938D01*
X040201Y089906D01*
X040365D02*
X040398Y089938D01*
X040463D01*
X040496Y089906D01*
Y089873D01*
X040463Y08984D01*
X040496Y089807D01*
Y089774D01*
X040463Y089742D01*
X040398D01*
X040365Y089774D01*
Y089807D01*
X040398Y08984D01*
X040365Y089873D01*
Y089906D01*
X040398Y08984D02*
X040463D01*
X040024Y088992D02*
Y089188D01*
X040122D01*
X040155Y089156D01*
Y08909D01*
X040122Y089057D01*
X040024D01*
X04009D02*
X040155Y088992D01*
X040221D02*
X040286D01*
X040254D01*
Y089188D01*
X040221Y089156D01*
X040385Y089188D02*
X040516D01*
Y089156D01*
X040385Y089024D01*
Y088992D01*
X036263Y089366D02*
Y089563D01*
X036362D01*
X036395Y08953D01*
Y089465D01*
X036362Y089432D01*
X036263D01*
X036329D02*
X036395Y089366D01*
X03646D02*
X036526D01*
X036493D01*
Y089563D01*
X03646Y08953D01*
X036755Y089563D02*
X03669Y08953D01*
X036624Y089465D01*
Y089399D01*
X036657Y089366D01*
X036723D01*
X036755Y089399D01*
Y089432D01*
X036723Y089465D01*
X036624D01*
X039954Y097472D02*
Y097668D01*
X040052D01*
X040085Y097636D01*
Y09757D01*
X040052Y097537D01*
X039954D01*
X04002D02*
X040085Y097472D01*
X040151D02*
X040216D01*
X040184D01*
Y097668D01*
X040151Y097636D01*
X040446Y097668D02*
X040315D01*
Y09757D01*
X04038Y097603D01*
X040413D01*
X040446Y09757D01*
Y097504D01*
X040413Y097472D01*
X040348D01*
X040315Y097504D01*
X039954Y096732D02*
Y096928D01*
X040052D01*
X040085Y096896D01*
Y09683D01*
X040052Y096797D01*
X039954D01*
X04002D02*
X040085Y096732D01*
X040151D02*
X040216D01*
X040184D01*
Y096928D01*
X040151Y096896D01*
X040413Y096732D02*
Y096928D01*
X040315Y09683D01*
X040446D01*
X036904Y096732D02*
Y096928D01*
X037002D01*
X037035Y096896D01*
Y09683D01*
X037002Y096797D01*
X036904D01*
X03697D02*
X037035Y096732D01*
X037101D02*
X037166D01*
X037134D01*
Y096928D01*
X037101Y096896D01*
X037396Y096732D02*
X037265D01*
X037396Y096863D01*
Y096896D01*
X037363Y096928D01*
X037298D01*
X037265Y096896D01*
X040027Y105282D02*
Y105478D01*
X040125D01*
X040158Y105446D01*
Y10538D01*
X040125Y105347D01*
X040027D01*
X040092D02*
X040158Y105282D01*
X040224D02*
X040289D01*
X040256D01*
Y105478D01*
X040224Y105446D01*
X040388Y105282D02*
X040453D01*
X04042D01*
Y105478D01*
X040388Y105446D01*
X040056Y104532D02*
Y104728D01*
X040154D01*
X040187Y104696D01*
Y10463D01*
X040154Y104597D01*
X040056D01*
X040122D02*
X040187Y104532D01*
X040253Y104564D02*
X040286Y104532D01*
X040351D01*
X040384Y104564D01*
Y104696D01*
X040351Y104728D01*
X040286D01*
X040253Y104696D01*
Y104663D01*
X040286Y10463D01*
X040384D01*
X037026Y104512D02*
Y104708D01*
X037124D01*
X037157Y104676D01*
Y10461D01*
X037124Y104577D01*
X037026D01*
X037092D02*
X037157Y104512D01*
X037223Y104708D02*
X037354D01*
Y104676D01*
X037223Y104544D01*
Y104512D01*
X039585Y091305D02*
X039454D01*
X039421Y091272D01*
Y091207D01*
X039454Y091174D01*
X039585D01*
X039618Y091207D01*
Y091272D01*
X039552Y091239D02*
X039618Y091305D01*
Y091272D02*
X039585Y091305D01*
X039421Y091502D02*
Y091371D01*
X039519D01*
X039487Y091436D01*
Y091469D01*
X039519Y091502D01*
X039585D01*
X039618Y091469D01*
Y091403D01*
X039585Y091371D01*
X039596Y099057D02*
X039464D01*
X039432Y099024D01*
Y098959D01*
X039464Y098926D01*
X039596D01*
X039628Y098959D01*
Y099024D01*
X039563Y098992D02*
X039628Y099057D01*
Y099024D02*
X039596Y099057D01*
X039628Y099221D02*
X039432D01*
X03953Y099123D01*
Y099254D01*
X039606Y106827D02*
X039474D01*
X039442Y106794D01*
Y106729D01*
X039474Y106696D01*
X039606D01*
X039638Y106729D01*
Y106794D01*
X039573Y106762D02*
X039638Y106827D01*
Y106794D02*
X039606Y106827D01*
X039474Y106893D02*
X039442Y106926D01*
Y106991D01*
X039474Y107024D01*
X039507D01*
X03954Y106991D01*
Y106958D01*
Y106991D01*
X039573Y107024D01*
X039606D01*
X039638Y106991D01*
Y106926D01*
X039606Y106893D01*
X037656Y089566D02*
Y089369D01*
X037755D01*
X037787Y089402D01*
Y089533D01*
X037755Y089566D01*
X037656D01*
X037853Y089369D02*
X037919D01*
X037886D01*
Y089566D01*
X037853Y089533D01*
X038017Y089369D02*
X038083D01*
X03805D01*
Y089566D01*
X038017Y089533D01*
X038356Y096688D02*
Y096492D01*
X038454D01*
X038487Y096524D01*
Y096656D01*
X038454Y096688D01*
X038356D01*
X038553Y096656D02*
X038586Y096688D01*
X038651D01*
X038684Y096656D01*
Y096623D01*
X038651Y09659D01*
X038684Y096557D01*
Y096524D01*
X038651Y096492D01*
X038586D01*
X038553Y096524D01*
Y096557D01*
X038586Y09659D01*
X038553Y096623D01*
Y096656D01*
X038586Y09659D02*
X038651D01*
X038356Y104508D02*
Y104312D01*
X038454D01*
X038487Y104344D01*
Y104476D01*
X038454Y104508D01*
X038356D01*
X038684D02*
X038618Y104476D01*
X038553Y10441D01*
Y104344D01*
X038586Y104312D01*
X038651D01*
X038684Y104344D01*
Y104377D01*
X038651Y10441D01*
X038553D01*
X040066Y112892D02*
Y113088D01*
X040164D01*
X040197Y113056D01*
Y11299D01*
X040164Y112957D01*
X040066D01*
X040132D02*
X040197Y112892D01*
X040361D02*
Y113088D01*
X040263Y11299D01*
X040394D01*
X040056Y112152D02*
Y112348D01*
X040154D01*
X040187Y112316D01*
Y11225D01*
X040154Y112217D01*
X040056D01*
X040122D02*
X040187Y112152D01*
X040253Y112316D02*
X040286Y112348D01*
X040351D01*
X040384Y112316D01*
Y112283D01*
X040351Y11225D01*
X040318D01*
X040351D01*
X040384Y112217D01*
Y112184D01*
X040351Y112152D01*
X040286D01*
X040253Y112184D01*
X039512Y120554D02*
X039708D01*
Y120456D01*
X039676Y120423D01*
X03961D01*
X039577Y120456D01*
Y120554D01*
Y120488D02*
X039512Y120423D01*
Y120226D02*
Y120357D01*
X039643Y120226D01*
X039676D01*
X039708Y120259D01*
Y120324D01*
X039676Y120357D01*
X039508Y119214D02*
X039312D01*
Y119116D01*
X039344Y119083D01*
X039476D01*
X039508Y119116D01*
Y119214D01*
X039312Y118886D02*
Y119017D01*
X039443Y118886D01*
X039476D01*
X039508Y118919D01*
Y118984D01*
X039476Y119017D01*
X019102Y115156D02*
X019266D01*
X019298Y115189D01*
Y115254D01*
X019266Y115287D01*
X019102D01*
X019134Y115353D02*
X019102Y115386D01*
Y115451D01*
X019134Y115484D01*
X019167D01*
X0192Y115451D01*
X019233Y115484D01*
X019266D01*
X019298Y115451D01*
Y115386D01*
X019266Y115353D01*
X019233D01*
X0192Y115386D01*
X019167Y115353D01*
X019134D01*
X0192Y115386D02*
Y115451D01*
X019806Y120598D02*
Y120434D01*
X019839Y120402D01*
X019904D01*
X019937Y120434D01*
Y120598D01*
X020134D02*
X020003D01*
Y1205D01*
X020068Y120533D01*
X020101D01*
X020134Y1205D01*
Y120434D01*
X020101Y120402D01*
X020036D01*
X020003Y120434D01*
X030746Y101508D02*
X030713Y101541D01*
X030648D01*
X030615Y101508D01*
Y101475D01*
X030648Y101443D01*
X030713D01*
X030746Y10141D01*
Y101377D01*
X030713Y101344D01*
X030648D01*
X030615Y101377D01*
X030812Y101541D02*
Y101344D01*
X030877Y10141D01*
X030943Y101344D01*
Y101541D01*
X031008D02*
X03114D01*
Y101508D01*
X031008Y101377D01*
Y101344D01*
X016838Y101251D02*
X016805Y101284D01*
X01674D01*
X016707Y101251D01*
Y101219D01*
X01674Y101186D01*
X016805D01*
X016838Y101153D01*
Y10112D01*
X016805Y101087D01*
X01674D01*
X016707Y10112D01*
X016904Y101284D02*
Y101087D01*
X016969Y101153D01*
X017035Y101087D01*
Y101284D01*
X017232D02*
X017166Y101251D01*
X017101Y101186D01*
Y10112D01*
X017133Y101087D01*
X017199D01*
X017232Y10112D01*
Y101153D01*
X017199Y101186D01*
X017101D01*
X034629Y103166D02*
X034596Y103198D01*
X03453D01*
X034498Y103166D01*
Y103133D01*
X03453Y1031D01*
X034596D01*
X034629Y103067D01*
Y103034D01*
X034596Y103002D01*
X03453D01*
X034498Y103034D01*
X034694Y103198D02*
Y103002D01*
X03476Y103067D01*
X034826Y103002D01*
Y103198D01*
X035022D02*
X034891D01*
Y1031D01*
X034957Y103133D01*
X03499D01*
X035022Y1031D01*
Y103034D01*
X03499Y103002D01*
X034924D01*
X034891Y103034D01*
X020609Y103236D02*
X020576Y103268D01*
X02051D01*
X020478Y103236D01*
Y103203D01*
X02051Y10317D01*
X020576D01*
X020609Y103137D01*
Y103104D01*
X020576Y103072D01*
X02051D01*
X020478Y103104D01*
X020674Y103268D02*
Y103072D01*
X02074Y103137D01*
X020806Y103072D01*
Y103268D01*
X02097Y103072D02*
Y103268D01*
X020871Y10317D01*
X021002D01*
X016764Y111499D02*
X016732Y111466D01*
Y1114D01*
X016764Y111368D01*
X016797D01*
X01683Y1114D01*
Y111466D01*
X016863Y111499D01*
X016896D01*
X016928Y111466D01*
Y1114D01*
X016896Y111368D01*
X016732Y111564D02*
X016928D01*
X016863Y11163D01*
X016928Y111696D01*
X016732D01*
X016928Y111892D02*
Y111761D01*
X016797Y111892D01*
X016764D01*
X016732Y11186D01*
Y111794D01*
X016764Y111761D01*
X016794Y117082D02*
X016762Y117049D01*
Y116983D01*
X016794Y11695D01*
X016827D01*
X01686Y116983D01*
Y117049D01*
X016893Y117082D01*
X016926D01*
X016958Y117049D01*
Y116983D01*
X016926Y11695D01*
X016762Y117147D02*
X016958D01*
X016893Y117213D01*
X016958Y117278D01*
X016762D01*
X016958Y117344D02*
Y11741D01*
Y117377D01*
X016762D01*
X016794Y117344D01*
X019588Y111985D02*
Y112182D01*
X019686D01*
X019719Y112149D01*
Y112083D01*
X019686Y11205D01*
X019588D01*
X019653D02*
X019719Y111985D01*
X019784Y112149D02*
X019817Y112182D01*
X019883D01*
X019916Y112149D01*
Y112116D01*
X019883Y112083D01*
X01985D01*
X019883D01*
X019916Y11205D01*
Y112018D01*
X019883Y111985D01*
X019817D01*
X019784Y112018D01*
X019981Y111985D02*
X020047D01*
X020014D01*
Y112182D01*
X019981Y112149D01*
X019218Y116192D02*
Y116388D01*
X019316D01*
X019349Y116356D01*
Y11629D01*
X019316Y116257D01*
X019218D01*
X019283D02*
X019349Y116192D01*
X019414Y116356D02*
X019447Y116388D01*
X019513D01*
X019546Y116356D01*
Y116323D01*
X019513Y11629D01*
X01948D01*
X019513D01*
X019546Y116257D01*
Y116224D01*
X019513Y116192D01*
X019447D01*
X019414Y116224D01*
X019611Y116356D02*
X019644Y116388D01*
X01971D01*
X019742Y116356D01*
Y116224D01*
X01971Y116192D01*
X019644D01*
X019611Y116224D01*
Y116356D01*
X020228Y115798D02*
X020032D01*
Y115896D01*
X020064Y115929D01*
X02013D01*
X020163Y115896D01*
Y115798D01*
Y115863D02*
X020228Y115929D01*
Y116126D02*
Y115994D01*
X020097Y116126D01*
X020064D01*
X020032Y116093D01*
Y116027D01*
X020064Y115994D01*
X020196Y116191D02*
X020228Y116224D01*
Y11629D01*
X020196Y116322D01*
X020064D01*
X020032Y11629D01*
Y116224D01*
X020064Y116191D01*
X020097D01*
X02013Y116224D01*
Y116322D01*
X020628Y115798D02*
X020432D01*
Y115896D01*
X020464Y115929D01*
X02053D01*
X020563Y115896D01*
Y115798D01*
Y115863D02*
X020628Y115929D01*
Y116126D02*
Y115994D01*
X020497Y116126D01*
X020464D01*
X020432Y116093D01*
Y116027D01*
X020464Y115994D01*
Y116191D02*
X020432Y116224D01*
Y11629D01*
X020464Y116322D01*
X020497D01*
X02053Y11629D01*
X020563Y116322D01*
X020596D01*
X020628Y11629D01*
Y116224D01*
X020596Y116191D01*
X020563D01*
X02053Y116224D01*
X020497Y116191D01*
X020464D01*
X02053Y116224D02*
Y11629D01*
X019588Y112302D02*
Y112498D01*
X019686D01*
X019719Y112466D01*
Y1124D01*
X019686Y112367D01*
X019588D01*
X019653D02*
X019719Y112302D01*
X019916D02*
X019784D01*
X019916Y112433D01*
Y112466D01*
X019883Y112498D01*
X019817D01*
X019784Y112466D01*
X019981Y112498D02*
X020112D01*
Y112466D01*
X019981Y112334D01*
Y112302D01*
X019198Y117272D02*
Y117468D01*
X019296D01*
X019329Y117436D01*
Y11737D01*
X019296Y117337D01*
X019198D01*
X019263D02*
X019329Y117272D01*
X019526D02*
X019394D01*
X019526Y117403D01*
Y117436D01*
X019493Y117468D01*
X019427D01*
X019394Y117436D01*
X019722Y117468D02*
X019657Y117436D01*
X019591Y11737D01*
Y117304D01*
X019624Y117272D01*
X01969D01*
X019722Y117304D01*
Y117337D01*
X01969Y11737D01*
X019591D01*
X031874Y102322D02*
Y102518D01*
X031973D01*
X032005Y102486D01*
Y10242D01*
X031973Y102387D01*
X031874D01*
X03194D02*
X032005Y102322D01*
X032202D02*
X032071D01*
X032202Y102453D01*
Y102486D01*
X032169Y102518D01*
X032104D01*
X032071Y102486D01*
X032399Y102518D02*
X032268D01*
Y10242D01*
X032333Y102453D01*
X032366D01*
X032399Y10242D01*
Y102354D01*
X032366Y102322D01*
X032301D01*
X032268Y102354D01*
X01823Y102352D02*
Y102548D01*
X018329D01*
X018362Y102516D01*
Y10245D01*
X018329Y102417D01*
X01823D01*
X018296D02*
X018362Y102352D01*
X018558D02*
X018427D01*
X018558Y102483D01*
Y102516D01*
X018526Y102548D01*
X01846D01*
X018427Y102516D01*
X018722Y102352D02*
Y102548D01*
X018624Y10245D01*
X018755D01*
X033171Y102342D02*
Y102538D01*
X033269D01*
X033302Y102506D01*
Y10244D01*
X033269Y102407D01*
X033171D01*
X033237D02*
X033302Y102342D01*
X033499D02*
X033368D01*
X033499Y102473D01*
Y102506D01*
X033466Y102538D01*
X033401D01*
X033368Y102506D01*
X033565D02*
X033597Y102538D01*
X033663D01*
X033696Y102506D01*
Y102473D01*
X033663Y10244D01*
X03363D01*
X033663D01*
X033696Y102407D01*
Y102374D01*
X033663Y102342D01*
X033597D01*
X033565Y102374D01*
X01974Y102342D02*
Y102538D01*
X019839D01*
X019872Y102506D01*
Y10244D01*
X019839Y102407D01*
X01974D01*
X019806D02*
X019872Y102342D01*
X020068D02*
X019937D01*
X020068Y102473D01*
Y102506D01*
X020036Y102538D01*
X01997D01*
X019937Y102506D01*
X020265Y102342D02*
X020134D01*
X020265Y102473D01*
Y102506D01*
X020232Y102538D01*
X020167D01*
X020134Y102506D01*
X021778Y112342D02*
Y112538D01*
X021876D01*
X021909Y112506D01*
Y11244D01*
X021876Y112407D01*
X021778D01*
X021843D02*
X021909Y112342D01*
X022106D02*
X021974D01*
X022106Y112473D01*
Y112506D01*
X022073Y112538D01*
X022007D01*
X021974Y112506D01*
X022171D02*
X022204Y112538D01*
X02227D01*
X022302Y112506D01*
Y112374D01*
X02227Y112342D01*
X022204D01*
X022171Y112374D01*
Y112506D01*
X021784Y111982D02*
Y112178D01*
X021882D01*
X021915Y112146D01*
Y11208D01*
X021882Y112047D01*
X021784D01*
X02185D02*
X021915Y111982D01*
X021981D02*
X022046D01*
X022014D01*
Y112178D01*
X021981Y112146D01*
X022145Y112014D02*
X022178Y111982D01*
X022243D01*
X022276Y112014D01*
Y112146D01*
X022243Y112178D01*
X022178D01*
X022145Y112146D01*
Y112113D01*
X022178Y11208D01*
X022276D01*
X021824Y117462D02*
Y117658D01*
X021922D01*
X021955Y117626D01*
Y11756D01*
X021922Y117527D01*
X021824D01*
X02189D02*
X021955Y117462D01*
X022021D02*
X022086D01*
X022054D01*
Y117658D01*
X022021Y117626D01*
X022185D02*
X022218Y117658D01*
X022283D01*
X022316Y117626D01*
Y117593D01*
X022283Y11756D01*
X02225D01*
X022283D01*
X022316Y117527D01*
Y117494D01*
X022283Y117462D01*
X022218D01*
X022185Y117494D01*
X017088Y118106D02*
X016892D01*
Y118204D01*
X016924Y118237D01*
X01699D01*
X017023Y118204D01*
Y118106D01*
Y118172D02*
X017088Y118237D01*
X016892Y118434D02*
Y118303D01*
X01699D01*
X016957Y118368D01*
Y118401D01*
X01699Y118434D01*
X017056D01*
X017088Y118401D01*
Y118336D01*
X017056Y118303D01*
X017058Y110519D02*
X016862D01*
Y110617D01*
X016894Y11065D01*
X01696D01*
X016993Y110617D01*
Y110519D01*
Y110584D02*
X017058Y11065D01*
Y110716D02*
Y110781D01*
Y110748D01*
X016862D01*
X016894Y110716D01*
X021465Y110467D02*
X021334D01*
X021301Y110434D01*
Y110369D01*
X021334Y110336D01*
X021465D01*
X021497Y110369D01*
Y110434D01*
X021432Y110402D02*
X021497Y110467D01*
Y110434D02*
X021465Y110467D01*
X021301Y110533D02*
Y110664D01*
X021334D01*
X021465Y110533D01*
X021497D01*
X018506Y110487D02*
X018374D01*
X018342Y110454D01*
Y110389D01*
X018374Y110356D01*
X018506D01*
X018538Y110389D01*
Y110454D01*
X018473Y110422D02*
X018538Y110487D01*
Y110454D02*
X018506Y110487D01*
X018342Y110684D02*
X018374Y110618D01*
X01844Y110553D01*
X018506D01*
X018538Y110586D01*
Y110651D01*
X018506Y110684D01*
X018473D01*
X01844Y110651D01*
Y110553D01*
X017652Y112957D02*
Y112892D01*
Y112924D01*
X017816D01*
X017848Y112892D01*
Y112859D01*
X017816Y112826D01*
X017652Y113154D02*
Y113023D01*
X01775D01*
X017717Y113088D01*
Y113121D01*
X01775Y113154D01*
X017816D01*
X017848Y113121D01*
Y113056D01*
X017816Y113023D01*
X018176Y113882D02*
Y114078D01*
X018078D01*
X018045Y114046D01*
Y113914D01*
X018078Y113882D01*
X018176D01*
X017979Y114078D02*
X017914D01*
X017946D01*
Y113882D01*
X017979Y113914D01*
X017684Y113882D02*
X017815D01*
Y11398D01*
X01775Y113947D01*
X017717D01*
X017684Y11398D01*
Y114046D01*
X017717Y114078D01*
X017782D01*
X017815Y114046D01*
X018176Y114362D02*
Y114558D01*
X018078D01*
X018045Y114526D01*
Y114394D01*
X018078Y114362D01*
X018176D01*
X017979Y114558D02*
X017914D01*
X017946D01*
Y114362D01*
X017979Y114394D01*
X017717Y114558D02*
Y114362D01*
X017815Y11446D01*
X017684D01*
X018746Y115242D02*
Y115438D01*
X018648D01*
X018615Y115406D01*
Y115274D01*
X018648Y115242D01*
X018746D01*
X018549Y115438D02*
X018484D01*
X018516D01*
Y115242D01*
X018549Y115274D01*
X018385D02*
X018352Y115242D01*
X018287D01*
X018254Y115274D01*
Y115307D01*
X018287Y11534D01*
X01832D01*
X018287D01*
X018254Y115373D01*
Y115406D01*
X018287Y115438D01*
X018352D01*
X018385Y115406D01*
X018202Y117024D02*
X018398D01*
Y117122D01*
X018366Y117155D01*
X018234D01*
X018202Y117122D01*
Y117024D01*
X018398Y117221D02*
Y117286D01*
Y117254D01*
X018202D01*
X018234Y117221D01*
X018398Y117516D02*
Y117385D01*
X018267Y117516D01*
X018234D01*
X018202Y117483D01*
Y117418D01*
X018234Y117385D01*
X022847Y118646D02*
X023044D01*
Y118744D01*
X023011Y118777D01*
X02288D01*
X022847Y118744D01*
Y118646D01*
X023011Y118843D02*
X023044Y118876D01*
Y118941D01*
X023011Y118974D01*
X02288D01*
X022847Y118941D01*
Y118876D01*
X02288Y118843D01*
X022912D01*
X022945Y118876D01*
Y118974D01*
X030695Y102506D02*
X030662Y102538D01*
X030597D01*
X030564Y102506D01*
Y102374D01*
X030597Y102342D01*
X030662D01*
X030695Y102374D01*
X030761Y102342D02*
X030826D01*
X030794D01*
Y102538D01*
X030761Y102506D01*
X030925D02*
X030958Y102538D01*
X031023D01*
X031056Y102506D01*
Y102473D01*
X031023Y10244D01*
X031056Y102407D01*
Y102374D01*
X031023Y102342D01*
X030958D01*
X030925Y102374D01*
Y102407D01*
X030958Y10244D01*
X030925Y102473D01*
Y102506D01*
X030958Y10244D02*
X031023D01*
X016874Y102566D02*
X016841Y102598D01*
X016775D01*
X016742Y102566D01*
Y102434D01*
X016775Y102402D01*
X016841D01*
X016874Y102434D01*
X016939Y102402D02*
X017005D01*
X016972D01*
Y102598D01*
X016939Y102566D01*
X017103Y102598D02*
X017234D01*
Y102566D01*
X017103Y102434D01*
Y102402D01*
X034635Y102526D02*
X034602Y102558D01*
X034537D01*
X034504Y102526D01*
Y102394D01*
X034537Y102362D01*
X034602D01*
X034635Y102394D01*
X034701Y102362D02*
X034766D01*
X034734D01*
Y102558D01*
X034701Y102526D01*
X034996Y102558D02*
X03493Y102526D01*
X034865Y10246D01*
Y102394D01*
X034898Y102362D01*
X034963D01*
X034996Y102394D01*
Y102427D01*
X034963Y10246D01*
X034865D01*
X021154Y102526D02*
X021121Y102558D01*
X021055D01*
X021022Y102526D01*
Y102394D01*
X021055Y102362D01*
X021121D01*
X021154Y102394D01*
X021219Y102362D02*
X021285D01*
X021252D01*
Y102558D01*
X021219Y102526D01*
X021514Y102558D02*
X021383D01*
Y10246D01*
X021449Y102493D01*
X021482D01*
X021514Y10246D01*
Y102394D01*
X021482Y102362D01*
X021416D01*
X021383Y102394D01*
X020874Y115945D02*
X020842Y115912D01*
Y115847D01*
X020874Y115814D01*
X021006D01*
X021038Y115847D01*
Y115912D01*
X021006Y115945D01*
X021038Y116011D02*
Y116076D01*
Y116044D01*
X020842D01*
X020874Y116011D01*
Y116175D02*
X020842Y116208D01*
Y116273D01*
X020874Y116306D01*
X020907D01*
X02094Y116273D01*
Y11624D01*
Y116273D01*
X020973Y116306D01*
X021006D01*
X021038Y116273D01*
Y116208D01*
X021006Y116175D01*
X021224Y115935D02*
X021192Y115902D01*
Y115837D01*
X021224Y115804D01*
X021356D01*
X021388Y115837D01*
Y115902D01*
X021356Y115935D01*
X021388Y116001D02*
Y116066D01*
Y116034D01*
X021192D01*
X021224Y116001D01*
X021388Y116296D02*
Y116165D01*
X021257Y116296D01*
X021224D01*
X021192Y116263D01*
Y116198D01*
X021224Y116165D01*
X023507Y120016D02*
X023474Y120048D01*
X023409D01*
X023376Y120016D01*
Y119884D01*
X023409Y119852D01*
X023474D01*
X023507Y119884D01*
X023573D02*
X023606Y119852D01*
X023671D01*
X023704Y119884D01*
Y120016D01*
X023671Y120048D01*
X023606D01*
X023573Y120016D01*
Y119983D01*
X023606Y11995D01*
X023704D01*
X025701Y119074D02*
X025734Y119042D01*
X0258D01*
X025832Y119074D01*
Y119206D01*
X0258Y119238D01*
X025734D01*
X025701Y119206D01*
X025636Y119074D02*
X025603Y119042D01*
X025537D01*
X025504Y119074D01*
Y119107D01*
X025537Y11914D01*
X025504Y119173D01*
Y119206D01*
X025537Y119238D01*
X025603D01*
X025636Y119206D01*
Y119173D01*
X025603Y11914D01*
X025636Y119107D01*
Y119074D01*
X025603Y11914D02*
X025537D01*
X016264Y118197D02*
X016232Y118164D01*
Y118099D01*
X016264Y118066D01*
X016396D01*
X016428Y118099D01*
Y118164D01*
X016396Y118197D01*
X016232Y118394D02*
Y118263D01*
X01633D01*
X016297Y118328D01*
Y118361D01*
X01633Y118394D01*
X016396D01*
X016428Y118361D01*
Y118296D01*
X016396Y118263D01*
X016224Y110607D02*
X016192Y110574D01*
Y110509D01*
X016224Y110476D01*
X016356D01*
X016388Y110509D01*
Y110574D01*
X016356Y110607D01*
X016224Y110673D02*
X016192Y110706D01*
Y110771D01*
X016224Y110804D01*
X016257D01*
X01629Y110771D01*
Y110738D01*
Y110771D01*
X016323Y110804D01*
X016356D01*
X016388Y110771D01*
Y110706D01*
X016356Y110673D01*
X023037Y116566D02*
X023004Y116598D01*
X022939D01*
X022906Y116566D01*
Y116434D01*
X022939Y116402D01*
X023004D01*
X023037Y116434D01*
X023234Y116402D02*
X023103D01*
X023234Y116533D01*
Y116566D01*
X023201Y116598D01*
X023136D01*
X023103Y116566D01*
X02365Y117156D02*
X023617Y117188D01*
X023552D01*
X023519Y117156D01*
Y117024D01*
X023552Y116992D01*
X023617D01*
X02365Y117024D01*
X023716Y116992D02*
X023781D01*
X023748D01*
Y117188D01*
X023716Y117156D01*
M02*
