G04*
G04 #@! TF.GenerationSoftware,Altium Limited,Altium Designer,21.9.2 (33)*
G04*
G04 Layer_Color=0*
%FSTAX24Y24*%
%MOIN*%
G70*
G04*
G04 #@! TF.SameCoordinates,99FB27D3-1440-4BB7-B033-8997F9312AF3*
G04*
G04*
G04 #@! TF.FilePolarity,Positive*
G04*
G01*
G75*
%ADD16C,0.0039*%
D16*
X020223Y11444D02*
X020617D01*
X02042Y114243D02*
Y114637D01*
X028809Y116683D02*
Y117077D01*
X028613Y11688D02*
X029006D01*
X022223Y11651D02*
X022617D01*
X02242Y116313D02*
Y116707D01*
X01661Y110499D02*
Y110893D01*
X016413Y110696D02*
X016807D01*
X01668Y118063D02*
Y118457D01*
X016483Y11826D02*
X016877D01*
X0213Y116623D02*
Y117017D01*
X021103Y11682D02*
X021497D01*
X02093Y116623D02*
Y117017D01*
X020733Y11682D02*
X021127D01*
X02125Y101683D02*
Y102077D01*
X021053Y10188D02*
X021447D01*
X03477Y101683D02*
Y102077D01*
X034573Y10188D02*
X034967D01*
X017Y101683D02*
Y102077D01*
X016803Y10188D02*
X017197D01*
X03079Y101683D02*
Y102077D01*
X030593Y10188D02*
X030987D01*
X02521Y101683D02*
Y102077D01*
X025013Y10188D02*
X025407D01*
X022728Y11818D02*
X023122D01*
X022925Y117983D02*
Y118377D01*
X03994Y118853D02*
Y119247D01*
X039743Y11905D02*
X040137D01*
X038353Y104958D02*
X038746D01*
X038549Y104761D02*
Y105155D01*
X038333Y097178D02*
X038726D01*
X038529Y096981D02*
Y097375D01*
X038363Y089448D02*
X038756D01*
X038559Y089251D02*
Y089645D01*
X032894Y093952D02*
X033287D01*
X03309Y093756D02*
Y094149D01*
X02273Y116863D02*
Y117257D01*
X022533Y11706D02*
X022927D01*
X02258Y118933D02*
Y119327D01*
X022383Y11913D02*
X022777D01*
X02258Y119673D02*
Y120067D01*
X022383Y11987D02*
X022777D01*
X018743Y11095D02*
X019137D01*
X01894Y110753D02*
Y111147D01*
X020732Y11095D02*
X021126D01*
X020929Y110753D02*
Y111147D01*
X04029Y114169D02*
Y114562D01*
X040093Y114365D02*
X040487D01*
X040299Y106536D02*
Y10693D01*
X040103Y106733D02*
X040496D01*
X040279Y098756D02*
Y09915D01*
X040083Y098953D02*
X040476D01*
X040309Y091026D02*
Y09142D01*
X040113Y091223D02*
X040506D01*
X03134Y09198D02*
Y092374D01*
X031144Y092177D02*
X031537D01*
X019773Y11897D02*
X020167D01*
X01997Y118773D02*
Y119167D01*
X0173Y110499D02*
Y110893D01*
X017103Y110696D02*
X017497D01*
X01737Y118063D02*
Y118457D01*
X017173Y11826D02*
X017567D01*
X02208Y118163D02*
Y118557D01*
X021883Y11836D02*
X022277D01*
X021083Y11206D02*
X021477D01*
X02128Y111863D02*
Y112257D01*
X021083Y11244D02*
X021477D01*
X02128Y112243D02*
Y112637D01*
X02001Y101683D02*
Y102077D01*
X019813Y10188D02*
X020207D01*
X033443Y101683D02*
Y102077D01*
X033246Y10188D02*
X03364D01*
X01844Y101683D02*
Y102077D01*
X018243Y10188D02*
X018637D01*
X032117Y101683D02*
Y102077D01*
X03192Y10188D02*
X032314D01*
X019273Y11702D02*
X019667D01*
X01947Y116823D02*
Y117217D01*
X018943Y11243D02*
X019337D01*
X01914Y112233D02*
Y112627D01*
X02053Y116623D02*
Y117017D01*
X020333Y11682D02*
X020727D01*
X02012Y116623D02*
Y117017D01*
X019923Y11682D02*
X020317D01*
X019273Y11665D02*
X019667D01*
X01947Y116453D02*
Y116847D01*
X018943Y112073D02*
X019337D01*
X01914Y111876D02*
Y11227D01*
X039965Y120228D02*
Y120621D01*
X039768Y120424D02*
X040162D01*
X040033Y112615D02*
X040427D01*
X04023Y112418D02*
Y112812D01*
X040033Y11336D02*
X040427D01*
X04023Y113163D02*
Y113557D01*
X036978Y104983D02*
X037372D01*
X037175Y104786D02*
Y10518D01*
X040043Y104983D02*
X040436D01*
X040239Y104786D02*
Y10518D01*
X040043Y105728D02*
X040436D01*
X040239Y105531D02*
Y105925D01*
X036958Y097203D02*
X037352D01*
X037155Y097006D02*
Y0974D01*
X040023Y097203D02*
X040416D01*
X040219Y097006D02*
Y0974D01*
X040023Y097948D02*
X040416D01*
X040219Y097751D02*
Y098145D01*
X036958Y08948D02*
X037352D01*
X037155Y089283D02*
Y089677D01*
X040053Y089473D02*
X040446D01*
X040249Y089276D02*
Y08967D01*
X040053Y090218D02*
X040446D01*
X040249Y090021D02*
Y090415D01*
X034298Y09392D02*
X034692D01*
X034495Y093723D02*
Y094117D01*
X031204Y093927D02*
X031597D01*
X031401Y09373D02*
Y094124D01*
X031204Y093182D02*
X031597D01*
X031401Y092986D02*
Y093379D01*
X02406Y101683D02*
Y102077D01*
X023863Y10188D02*
X024257D01*
M02*
